<svg width="42" height="42" viewBox="0 0 42 42" fill="none" xmlns="http://www.w3.org/2000/svg">
<path d="M29.3125 6.23V3.5C29.3125 2.7825 28.7175 2.1875 28 2.1875C27.2825 2.1875 26.6875 2.7825 26.6875 3.5V6.125H15.3125V3.5C15.3125 2.7825 14.7175 2.1875 14 2.1875C13.2825 2.1875 12.6875 2.7825 12.6875 3.5V6.23C7.96247 6.6675 5.66997 9.485 5.31997 13.6675C5.28497 14.175 5.70497 14.595 6.19497 14.595H35.805C36.3125 14.595 36.7325 14.1575 36.68 13.6675C36.33 9.485 34.0375 6.6675 29.3125 6.23Z" fill="#CD2026"/>
<path d="M35 17.22H7C6.0375 17.22 5.25 18.0075 5.25 18.97V29.75C5.25 35 7.875 38.5 14 38.5H28C34.125 38.5 36.75 35 36.75 29.75V18.97C36.75 18.0075 35.9625 17.22 35 17.22ZM16.1175 31.8675C16.03 31.9375 15.9425 32.025 15.855 32.0775C15.75 32.1475 15.645 32.2 15.54 32.235C15.435 32.2875 15.33 32.3225 15.225 32.34C15.1025 32.3575 14.9975 32.375 14.875 32.375C14.6475 32.375 14.42 32.3225 14.21 32.235C13.9825 32.1475 13.8075 32.025 13.6325 31.8675C13.3175 31.535 13.125 31.08 13.125 30.625C13.125 30.17 13.3175 29.715 13.6325 29.3825C13.8075 29.225 13.9825 29.1025 14.21 29.015C14.525 28.875 14.875 28.84 15.225 28.91C15.33 28.9275 15.435 28.9625 15.54 29.015C15.645 29.05 15.75 29.1025 15.855 29.1725C15.9425 29.2425 16.03 29.3125 16.1175 29.3825C16.4325 29.715 16.625 30.17 16.625 30.625C16.625 31.08 16.4325 31.535 16.1175 31.8675ZM16.1175 25.7425C15.785 26.0575 15.33 26.25 14.875 26.25C14.42 26.25 13.965 26.0575 13.6325 25.7425C13.3175 25.41 13.125 24.955 13.125 24.5C13.125 24.045 13.3175 23.59 13.6325 23.2575C14.1225 22.7675 14.8925 22.61 15.54 22.89C15.7675 22.9775 15.96 23.1 16.1175 23.2575C16.4325 23.59 16.625 24.045 16.625 24.5C16.625 24.955 16.4325 25.41 16.1175 25.7425ZM22.2425 31.8675C21.91 32.1825 21.455 32.375 21 32.375C20.545 32.375 20.09 32.1825 19.7575 31.8675C19.4425 31.535 19.25 31.08 19.25 30.625C19.25 30.17 19.4425 29.715 19.7575 29.3825C20.405 28.735 21.595 28.735 22.2425 29.3825C22.5575 29.715 22.75 30.17 22.75 30.625C22.75 31.08 22.5575 31.535 22.2425 31.8675ZM22.2425 25.7425C22.155 25.8125 22.0675 25.8825 21.98 25.9525C21.875 26.0225 21.77 26.075 21.665 26.11C21.56 26.1625 21.455 26.1975 21.35 26.215C21.2275 26.2325 21.1225 26.25 21 26.25C20.545 26.25 20.09 26.0575 19.7575 25.7425C19.4425 25.41 19.25 24.955 19.25 24.5C19.25 24.045 19.4425 23.59 19.7575 23.2575C19.915 23.1 20.1075 22.9775 20.335 22.89C20.9825 22.61 21.7525 22.7675 22.2425 23.2575C22.5575 23.59 22.75 24.045 22.75 24.5C22.75 24.955 22.5575 25.41 22.2425 25.7425ZM28.3675 31.8675C28.035 32.1825 27.58 32.375 27.125 32.375C26.67 32.375 26.215 32.1825 25.8825 31.8675C25.5675 31.535 25.375 31.08 25.375 30.625C25.375 30.17 25.5675 29.715 25.8825 29.3825C26.53 28.735 27.72 28.735 28.3675 29.3825C28.6825 29.715 28.875 30.17 28.875 30.625C28.875 31.08 28.6825 31.535 28.3675 31.8675ZM28.3675 25.7425C28.28 25.8125 28.1925 25.8825 28.105 25.9525C28 26.0225 27.895 26.075 27.79 26.11C27.685 26.1625 27.58 26.1975 27.475 26.215C27.3525 26.2325 27.23 26.25 27.125 26.25C26.67 26.25 26.215 26.0575 25.8825 25.7425C25.5675 25.41 25.375 24.955 25.375 24.5C25.375 24.045 25.5675 23.59 25.8825 23.2575C26.0575 23.1 26.2325 22.9775 26.46 22.89C26.775 22.75 27.125 22.715 27.475 22.785C27.58 22.8025 27.685 22.8375 27.79 22.89C27.895 22.925 28 22.9775 28.105 23.0475C28.1925 23.1175 28.28 23.1875 28.3675 23.2575C28.6825 23.59 28.875 24.045 28.875 24.5C28.875 24.955 28.6825 25.41 28.3675 25.7425Z" fill="#CD2026"/>
</svg>
