<svg width="40" height="40" viewBox="0 0 40 40" fill="none" xmlns="http://www.w3.org/2000/svg">
<path d="M0 20C0 8.95431 8.95431 0 20 0C31.0457 0 40 8.95431 40 20C40 31.0457 31.0457 40 20 40C8.95431 40 0 31.0457 0 20Z" fill="white"/>
<path d="M24.07 17.1583C27.37 17.4425 28.7175 19.1383 28.7175 22.8508V22.97C28.7175 27.0675 27.0766 28.7083 22.9791 28.7083H17.0116C12.9141 28.7083 11.2733 27.0675 11.2733 22.97V22.8508C11.2733 19.1658 12.6025 17.47 15.8475 17.1675" stroke="#27272A" stroke-width="1.5" stroke-linecap="round" stroke-linejoin="round"/>
<path d="M20 22.75V12.3184" stroke="#27272A" stroke-width="1.5" stroke-linecap="round" stroke-linejoin="round"/>
<path d="M23.0709 14.3625L20 11.2916L16.9292 14.3625" stroke="#27272A" stroke-width="1.5" stroke-linecap="round" stroke-linejoin="round"/>
</svg>
