<svg width="22" height="23" viewBox="0 0 22 23" fill="none" xmlns="http://www.w3.org/2000/svg">
<path d="M1.89747 4.71667C2.6308 1.545 7.40664 1.545 8.1308 4.71667C8.56164 6.5775 7.37914 8.15417 6.35247 9.135C5.6008 9.85 4.4183 9.84084 3.66664 9.135C2.64914 8.15417 1.46664 6.5775 1.89747 4.71667Z" stroke="#D33030" stroke-width="1.3"/>
<path d="M13.8142 15.7167C14.5475 12.545 19.3508 12.545 20.0842 15.7167C20.515 17.5775 19.3325 19.1542 18.2967 20.135C17.545 20.85 16.3533 20.8408 15.6017 20.135C14.5658 19.1542 13.3833 17.5775 13.8142 15.7167Z" stroke="#D33030" stroke-width="1.3"/>
<path d="M11.0001 5.08333H13.4567C15.1526 5.08333 15.9409 7.18249 14.6667 8.30083L7.34255 14.7083C6.06838 15.8175 6.85672 17.9167 8.54338 17.9167H11.0001" stroke="#D33030" stroke-width="1.3" stroke-linecap="round" stroke-linejoin="round"/>
<path d="M5.02903 5.54166H5.03962" stroke="#D33030" stroke-width="2" stroke-linecap="round" stroke-linejoin="round"/>
<path d="M16.9457 16.5417H16.9562" stroke="#D33030" stroke-width="2" stroke-linecap="round" stroke-linejoin="round"/>
</svg>
