<svg width="16" height="16" viewBox="0 0 16 16" fill="none" xmlns="http://www.w3.org/2000/svg">
<path d="M4.52197 11.2671C6.9209 13.666 9.83447 15.5171 12.2168 15.5171C13.2876 15.5171 14.2256 15.1436 14.981 14.3135C15.4209 13.8237 15.6948 13.251 15.6948 12.6865C15.6948 12.2715 15.5371 11.873 15.147 11.5908L12.5986 9.78125C12.2085 9.51562 11.8848 9.38281 11.5859 9.38281C11.2124 9.38281 10.8721 9.59863 10.4902 9.97217L9.90088 10.5532C9.80957 10.6445 9.69336 10.686 9.58545 10.686C9.46094 10.686 9.33643 10.6362 9.25342 10.5947C8.73877 10.3208 7.85889 9.56543 7.03711 8.75195C6.22363 7.93848 5.46826 7.05859 5.20264 6.54395C5.16113 6.45264 5.11133 6.33643 5.11133 6.21191C5.11133 6.104 5.14453 5.99609 5.23584 5.90479L5.8252 5.29883C6.19043 4.91699 6.41455 4.58496 6.41455 4.20312C6.41455 3.9043 6.27344 3.58057 5.99951 3.19043L4.21484 0.675293C3.92432 0.276855 3.51758 0.102539 3.06934 0.102539C2.52148 0.102539 1.95703 0.351562 1.46729 0.824707C0.662109 1.59668 0.305176 2.55127 0.305176 3.60547C0.305176 5.98779 2.12305 8.87646 4.52197 11.2671Z" fill="white"/>
</svg>
