<svg width="18" height="18" viewBox="0 0 18 18" fill="none" xmlns="http://www.w3.org/2000/svg">
<path d="M13.0425 11.7525L10.0125 9H7.98001L4.95001 11.7525C4.10251 12.5175 3.82501 13.695 4.23751 14.76C4.65001 15.8175 5.65501 16.5 6.78751 16.5H11.205C12.345 16.5 13.3425 15.8175 13.755 14.76C14.1675 13.695 13.89 12.5175 13.0425 11.7525ZM10.365 13.605H7.63501C7.35001 13.605 7.12501 13.3725 7.12501 13.095C7.12501 12.8175 7.35751 12.585 7.63501 12.585H10.365C10.65 12.585 10.875 12.8175 10.875 13.095C10.875 13.3725 10.6425 13.605 10.365 13.605Z" fill="#A1A1AA"/>
<path d="M13.7625 3.24C13.35 2.1825 12.345 1.5 11.2125 1.5H6.7875C5.655 1.5 4.65 2.1825 4.2375 3.24C3.8325 4.305 4.11 5.4825 4.9575 6.2475L7.9875 9H10.02L13.05 6.2475C13.89 5.4825 14.1675 4.305 13.7625 3.24ZM10.365 5.4225H7.635C7.35 5.4225 7.125 5.19 7.125 4.9125C7.125 4.635 7.3575 4.4025 7.635 4.4025H10.365C10.65 4.4025 10.875 4.635 10.875 4.9125C10.875 5.19 10.6425 5.4225 10.365 5.4225Z" fill="#A1A1AA"/>
</svg>
