<svg width="20" height="20" viewBox="0 0 20 20" fill="none" xmlns="http://www.w3.org/2000/svg">
<path opacity="0.4" d="M8.95833 2.04172C9.53333 1.55006 10.475 1.55006 11.0583 2.04172L12.375 3.17506C12.625 3.39172 13.0917 3.56672 13.425 3.56672H14.8417C15.725 3.56672 16.45 4.29172 16.45 5.17506V6.59172C16.45 6.91672 16.625 7.39172 16.8417 7.64172L17.975 8.95839C18.4667 9.53339 18.4667 10.4751 17.975 11.0584L16.8417 12.3751C16.625 12.6251 16.45 13.0917 16.45 13.4251V14.8417C16.45 15.7251 15.725 16.4501 14.8417 16.4501H13.425C13.1 16.4501 12.625 16.6251 12.375 16.8417L11.0583 17.9751C10.4833 18.4667 9.54167 18.4667 8.95833 17.9751L7.64167 16.8417C7.39167 16.6251 6.925 16.4501 6.59167 16.4501H5.15C4.26667 16.4501 3.54167 15.7251 3.54167 14.8417V13.4167C3.54167 13.0917 3.36667 12.6251 3.15833 12.3751L2.03333 11.0501C1.55 10.4751 1.55 9.54172 2.03333 8.96672L3.15833 7.64172C3.36667 7.39172 3.54167 6.92506 3.54167 6.60006V5.16672C3.54167 4.28339 4.26667 3.55839 5.15 3.55839H6.59167C6.91667 3.55839 7.39167 3.38339 7.64167 3.16672L8.95833 2.04172Z" fill="#22C55E"/>
<path d="M8.99167 12.6417C8.825 12.6417 8.66667 12.575 8.55 12.4584L6.53334 10.4417C6.29167 10.2 6.29167 9.80002 6.53334 9.55836C6.775 9.31669 7.175 9.31669 7.41667 9.55836L8.99167 11.1334L12.575 7.55002C12.8167 7.30836 13.2167 7.30836 13.4583 7.55002C13.7 7.79169 13.7 8.19169 13.4583 8.43336L9.43333 12.4584C9.31667 12.575 9.15833 12.6417 8.99167 12.6417Z" fill="#22C55E"/>
</svg>
