<svg width="32" height="32" viewBox="0 0 32 32" fill="none" xmlns="http://www.w3.org/2000/svg">
<rect width="32" height="32" rx="6" fill="#D33030"/>
<path d="M17.6533 16.19V13.8175H19.0384L19.6027 13.8317H24.0488L24.4934 13.8175H26.3573V16.19H24.6986V15.1174H19.312V16.19H17.6533ZM18.9871 9.78998H25.2544V14.7054H23.4759V10.408L24.2796 11.0757H19.9276L20.663 10.5855C20.7086 10.8034 20.7342 11.0141 20.7399 11.2177C20.7513 11.4214 20.757 11.6155 20.757 11.8002C20.757 12.3542 20.6972 12.8207 20.5775 13.1995C20.4635 13.5784 20.2896 13.8649 20.0559 14.059C19.8279 14.2532 19.54 14.3502 19.1923 14.3502L18.4485 13.8388C18.6765 13.6162 18.8446 13.3132 18.9529 12.9296C19.0612 12.5413 19.1154 12.063 19.1154 11.4948C19.1154 11.2343 19.104 10.962 19.0812 10.6779C19.0584 10.3938 19.027 10.0978 18.9871 9.78998Z" fill="white"/>
<path d="M5.57019 16.19L8.09606 12.0598L9.38459 13.135L7.57552 16.19H5.57019ZM15.503 16.19L13.7025 13.135L14.991 12.0598L17.5083 16.19H15.503ZM12.4139 14.5772L11.9275 14.4065L15.5542 9.78998H17.423L12.1921 16.19H10.895L5.66406 9.78998H7.52432L11.1595 14.4065L10.6646 14.5772V9.78998H12.4139V14.5772Z" fill="white"/>
<path d="M23.1384 19.9889H23.9758C24.2549 19.9889 24.4951 20.0341 24.6964 20.1245C24.8989 20.2137 25.0551 20.3401 25.1649 20.5037C25.2747 20.6673 25.329 20.86 25.3279 21.0819C25.329 21.3027 25.2747 21.4978 25.1649 21.6671C25.0551 21.8352 24.8989 21.9668 24.6964 22.0617C24.4951 22.1567 24.2549 22.2042 23.9758 22.2042H22.6631V18.69H23.4044V21.607H23.9758C24.1096 21.607 24.2223 21.583 24.3138 21.5349C24.4053 21.4858 24.4745 21.4211 24.5214 21.3411C24.5695 21.2598 24.5929 21.1712 24.5918 21.0751C24.5929 20.9355 24.5403 20.8177 24.4339 20.7216C24.3287 20.6244 24.1759 20.5758 23.9758 20.5758H23.1384V19.9889ZM26.3557 18.69V22.2042H25.6145V18.69H26.3557Z" fill="white"/>
<path d="M19.1749 19.3026V18.69H22.0611V19.3026H20.9852V22.2042H20.2508V19.3026H19.1749Z" fill="white"/>
<path d="M16.2051 22.2042V18.69H18.573V19.3026H16.9481V20.1399H18.4512V20.7525H16.9481V21.5916H18.5799V22.2042H16.2051Z" fill="white"/>
<path d="M12.3401 22.2042V21.607L12.4396 21.5984C12.5677 21.5881 12.6713 21.5395 12.7502 21.4526C12.8291 21.3645 12.888 21.2244 12.9269 21.0322C12.967 20.8389 12.9927 20.5792 13.0041 20.2532L13.0625 18.69H15.4476V22.2042H14.7252V19.2854H13.7523L13.6974 20.5088C13.6791 20.9024 13.6322 21.2238 13.5567 21.4732C13.4823 21.7226 13.3633 21.9067 13.1998 22.0257C13.0373 22.1447 12.8148 22.2042 12.5323 22.2042H12.3401Z" fill="white"/>
<path d="M8.8324 18.69H9.57367V20.9001H9.60284L11.1214 18.69H11.7718V22.2042H11.0288V19.9923H11.003L9.47586 22.2042H8.8324V18.69Z" fill="white"/>
<path d="M5.57202 22.2042V18.69H7.90394V19.3026H6.31501V19.9889H6.88641C7.16439 19.9889 7.40404 20.0341 7.60537 20.1245C7.80785 20.2137 7.964 20.3401 8.07382 20.5037C8.18364 20.6673 8.23854 20.86 8.23854 21.0819C8.23854 21.3027 8.18364 21.4978 8.07382 21.6671C7.964 21.8352 7.80785 21.9668 7.60537 22.0617C7.40404 22.1567 7.16439 22.2042 6.88641 22.2042H5.57202ZM6.31501 21.607H6.88641C7.01911 21.607 7.13121 21.583 7.22273 21.5349C7.31424 21.4858 7.38345 21.4211 7.43035 21.3411C7.4784 21.2598 7.50242 21.1712 7.50242 21.0751C7.50242 20.9355 7.44923 20.8177 7.34284 20.7216C7.2376 20.6244 7.08545 20.5758 6.88641 20.5758H6.31501V21.607Z" fill="white"/>
</svg>
