<svg width="165" height="96" viewBox="0 0 165 96" fill="none" xmlns="http://www.w3.org/2000/svg">
<path d="M95.948 50.5165V31.7901H106.881L111.335 31.9022H146.429L149.938 31.7901H164.65V50.5165H151.558V42.0504H109.041V50.5165H95.948ZM106.476 -1.52588e-05H155.945V38.7985H141.907V4.87783L148.251 10.1481H113.9L119.704 6.27951C120.064 7.9989 120.266 9.66223 120.311 11.2695C120.401 12.8767 120.446 14.4092 120.446 15.867C120.446 20.2402 119.974 23.922 119.029 26.9122C118.129 29.9025 116.757 32.1639 114.912 33.6964C113.112 35.2289 110.84 35.9951 108.096 35.9951L102.224 31.9583C104.024 30.2015 105.351 27.8093 106.206 24.7817C107.061 21.7167 107.488 17.9415 107.488 13.4561C107.488 11.4003 107.398 9.25107 107.218 7.00838C107.038 4.7657 106.791 2.42956 106.476 -1.52588e-05Z" fill="#CD2026"/>
<path d="M0.572754 50.5165L20.5099 17.9165L30.6806 26.4033L16.4013 50.5165H0.572754ZM78.9744 50.5165L64.7624 26.4033L74.9331 17.9165L94.8029 50.5165H78.9744ZM54.5918 37.7864L50.7525 36.4393L79.3785 0H94.1294L52.8405 50.5165H42.6025L1.31366 0H15.9971L44.6905 36.4393L40.7839 37.7864V0H54.5918V37.7864Z" fill="#CD2026"/>
<path d="M139.242 78.4282H145.851C148.054 78.4282 149.951 78.7848 151.54 79.4981C153.138 80.2024 154.37 81.2002 155.237 82.4914C156.104 83.7826 156.533 85.304 156.524 87.0557C156.533 88.7984 156.104 90.3379 155.237 91.6742C154.37 93.0015 153.138 94.0399 151.54 94.7893C149.951 95.5388 148.054 95.9135 145.851 95.9135H135.49V68.1753H141.341V91.2002H145.851C146.908 91.2002 147.797 91.0106 148.519 90.6313C149.242 90.2431 149.788 89.7329 150.158 89.1009C150.537 88.4598 150.723 87.76 150.713 87.0015C150.723 85.9 150.307 84.9699 149.467 84.2115C148.637 83.444 147.431 83.0602 145.851 83.0602H139.242V78.4282ZM164.637 68.1753V95.9135H158.786V68.1753H164.637Z" fill="#4F4F4F"/>
<path d="M107.957 73.0106V68.1753H130.738V73.0106H122.246V95.9135H116.449V73.0106H107.957Z" fill="#4F4F4F"/>
<path d="M84.5161 95.9135V68.1753H103.207V73.0106H90.3807V79.62H102.245V84.4553H90.3807V91.0783H103.261V95.9135H84.5161Z" fill="#4F4F4F"/>
<path d="M54.0085 95.9135V91.2002L54.7941 91.1325C55.8054 91.0512 56.6225 90.6674 57.2456 89.9812C57.8686 89.286 58.3336 88.1799 58.6406 86.6629C58.9566 85.137 59.1598 83.0873 59.2501 80.5139L59.7106 68.1753H78.5368V95.9135H72.8347V72.8751H65.1553L64.7219 82.532C64.5774 85.6381 64.2072 88.1753 63.6113 90.1437C63.0244 92.1121 62.0853 93.5659 60.7941 94.5049C59.5119 95.444 57.7557 95.9135 55.5255 95.9135H54.0085Z" fill="#4F4F4F"/>
<path d="M26.3215 68.1753H32.1726V85.62H32.4028L44.3893 68.1753H49.5225V95.9135H43.6579V78.4553H43.4547L31.4005 95.9135H26.3215V68.1753Z" fill="#4F4F4F"/>
<path d="M0.58667 95.9135V68.1753H18.993V73.0106H6.45123V78.4282H10.9614C13.1555 78.4282 15.0472 78.7848 16.6363 79.4981C18.2345 80.2024 19.467 81.2002 20.3339 82.4914C21.2007 83.7826 21.6341 85.304 21.6341 87.0557C21.6341 88.7984 21.2007 90.3379 20.3339 91.6742C19.467 93.0015 18.2345 94.0399 16.6363 94.7893C15.0472 95.5388 13.1555 95.9135 10.9614 95.9135H0.58667ZM6.45123 91.2002H10.9614C12.0088 91.2002 12.8937 91.0106 13.616 90.6313C14.3384 90.2431 14.8846 89.7329 15.2548 89.1009C15.6341 88.4598 15.8237 87.76 15.8237 87.0015C15.8237 85.9 15.4038 84.9699 14.5641 84.2115C13.7334 83.444 12.5325 83.0602 10.9614 83.0602H6.45123V91.2002Z" fill="#4F4F4F"/>
</svg>
