<svg width="34" height="34" viewBox="0 0 34 34" fill="none" xmlns="http://www.w3.org/2000/svg">
<g clip-path="url(#clip0_5407_1431)">
<path d="M0 0H34V34H0V0Z" fill="white"/>
<path d="M13.6133 0H20.3867V34H13.6133V0Z" fill="#FF0000"/>
<path d="M0 13.6133H34V20.3867H0V13.6133Z" fill="#FF0000"/>
<g style="mix-blend-mode:multiply">
<path fill-rule="evenodd" clip-rule="evenodd" d="M7.57695 26.423C7.65 25.2277 7.8625 24.2051 7.8625 24.2051C7.8625 24.2051 7.15859 24.2715 6.80664 24.2715C6.45469 24.2715 5.75078 24.2051 5.75078 24.2051C5.75078 24.2051 5.96328 25.2211 6.03633 26.423C4.84102 26.35 3.81836 26.1375 3.81836 26.1375C3.81836 26.1375 3.88477 26.6688 3.88477 27.1934C3.88477 27.718 3.81836 28.2492 3.81836 28.2492C3.81836 28.2492 4.83438 28.0367 6.03633 27.9637C5.96328 29.159 5.75078 30.1816 5.75078 30.1816C5.75078 30.1816 6.28203 30.1152 6.80664 30.1152C7.33789 30.1152 7.8625 30.1816 7.8625 30.1816C7.8625 30.1816 7.65 29.1656 7.57695 27.9637C8.77227 28.0367 9.79492 28.2492 9.79492 28.2492C9.79492 28.2492 9.72852 27.5453 9.72852 27.1934C9.72852 26.8414 9.79492 26.1375 9.79492 26.1375C9.79492 26.1375 8.77891 26.35 7.57695 26.423ZM27.9637 6.03633C28.0367 4.84102 28.2492 3.81836 28.2492 3.81836C28.2492 3.81836 27.5453 3.88477 27.1934 3.88477C26.8414 3.88477 26.1375 3.81836 26.1375 3.81836C26.1375 3.81836 26.35 4.84102 26.423 6.03633C25.2277 5.96328 24.2051 5.75078 24.2051 5.75078C24.2051 5.75078 24.2715 6.28203 24.2715 6.80664C24.2715 7.33789 24.2051 7.8625 24.2051 7.8625C24.2051 7.8625 25.2211 7.65 26.423 7.57695C26.35 8.77227 26.1375 9.79492 26.1375 9.79492C26.1375 9.79492 26.6688 9.72852 27.1934 9.72852C27.718 9.72852 28.2492 9.79492 28.2492 9.79492C28.2492 9.79492 28.0367 8.77891 27.9637 7.57695C29.159 7.65 30.1816 7.8625 30.1816 7.8625C30.1816 7.8625 30.1152 7.15859 30.1152 6.80664C30.1152 6.46133 30.1816 5.75078 30.1816 5.75078C30.1816 5.75078 29.159 5.96328 27.9637 6.03633ZM7.57695 6.03633C7.65 4.84102 7.8625 3.81836 7.8625 3.81836C7.8625 3.81836 7.15859 3.88477 6.80664 3.88477C6.45469 3.88477 5.75078 3.81836 5.75078 3.81836C5.75078 3.81836 5.96328 4.84102 6.03633 6.03633C4.84102 5.96328 3.81836 5.75078 3.81836 5.75078C3.81836 5.75078 3.88477 6.28203 3.88477 6.80664C3.88477 7.33789 3.81836 7.8625 3.81836 7.8625C3.81836 7.8625 4.83438 7.65 6.03633 7.57695C5.96328 8.77227 5.75078 9.79492 5.75078 9.79492C5.75078 9.79492 6.28203 9.72852 6.80664 9.72852C7.33789 9.72852 7.8625 9.79492 7.8625 9.79492C7.8625 9.79492 7.65 8.77891 7.57695 7.57695C8.77227 7.65 9.79492 7.8625 9.79492 7.8625C9.79492 7.8625 9.72852 7.15859 9.72852 6.80664C9.72852 6.46133 9.79492 5.75078 9.79492 5.75078C9.79492 5.75078 8.77891 5.96328 7.57695 6.03633ZM27.9637 26.423C28.0367 25.2277 28.2492 24.2051 28.2492 24.2051C28.2492 24.2051 27.5453 24.2715 27.1934 24.2715C26.8414 24.2715 26.1375 24.2051 26.1375 24.2051C26.1375 24.2051 26.35 25.2211 26.423 26.423C25.2277 26.35 24.2051 26.1375 24.2051 26.1375C24.2051 26.1375 24.2715 26.6688 24.2715 27.1934C24.2715 27.718 24.2051 28.2492 24.2051 28.2492C24.2051 28.2492 25.2211 28.0367 26.423 27.9637C26.35 29.159 26.1375 30.1816 26.1375 30.1816C26.1375 30.1816 26.6688 30.1152 27.1934 30.1152C27.718 30.1152 28.2492 30.1816 28.2492 30.1816C28.2492 30.1816 28.0367 29.1656 27.9637 27.9637C29.159 28.0367 30.1816 28.2492 30.1816 28.2492C30.1816 28.2492 30.1152 27.5453 30.1152 27.1934C30.1152 26.8414 30.1816 26.1375 30.1816 26.1375C30.1816 26.1375 29.159 26.35 27.9637 26.423Z" fill="#FF0000"/>
</g>
</g>
<defs>
<clipPath id="clip0_5407_1431">
<path d="M0 17C0 7.61116 7.61116 0 17 0C26.3888 0 34 7.61116 34 17C34 26.3888 26.3888 34 17 34C7.61116 34 0 26.3888 0 17Z" fill="white"/>
</clipPath>
</defs>
</svg>
