<svg width="34" height="34" viewBox="0 0 34 34" fill="none" xmlns="http://www.w3.org/2000/svg">
<g clip-path="url(#clip0_5407_521)">
<mask id="mask0_5407_521" style="mask-type:luminance" maskUnits="userSpaceOnUse" x="0" y="0" width="34" height="34">
<path d="M0 0H33.9915V33.9915H0V0Z" fill="white"/>
</mask>
<g mask="url(#mask0_5407_521)">
<path fill-rule="evenodd" clip-rule="evenodd" d="M0 0H67.9899V22.581H0V0Z" fill="#B20000"/>
<path fill-rule="evenodd" clip-rule="evenodd" d="M0 22.5811H67.9899V33.9984H0V22.5811Z" fill="#429F00"/>
<path fill-rule="evenodd" clip-rule="evenodd" d="M0 0H7.52473V33.9915H0V0Z" fill="white"/>
<path fill-rule="evenodd" clip-rule="evenodd" d="M0.356362 0.575662H0.719578V1.15132H0.356362V0.575662ZM1.4323 0.575662H2.50824V1.15132H1.43916L1.4323 0.575662ZM1.78867 0H2.15188V0.575662H1.78181L1.78867 0ZM3.58418 0H3.94055V0.575662H3.58418V0ZM5.02334 0.575662H6.09243V1.15132H5.01649L5.02334 0.575662ZM5.37285 0H5.72921V0.575662H5.37285V0ZM1.07594 1.15132H1.79552V1.72699H1.07594V1.15132ZM2.15188 1.15132H2.87146V1.72699H2.15188V1.15132ZM4.66013 1.15132H5.3797V1.72699H4.66013V1.15132ZM5.73607 1.15132H6.44194V1.72699H5.74292L5.73607 1.15132ZM0.719578 1.72699H1.4323V2.30265H0.719578V1.72699ZM2.50824 1.72699H3.22782V2.30265H2.50824V1.72699ZM4.30376 1.72699H5.01649V2.30265H4.30376V1.72699ZM6.09243 1.72699H6.81201V2.30265H6.09243V1.72699ZM6.81201 0.575662H7.16837V1.15132H6.81201V0.575662ZM0.356362 2.30265H1.07594V2.87831H0.356362V2.30265ZM2.86461 2.30265H3.58418V2.87831H2.86461V2.30265ZM6.45564 2.30265H7.16837V2.87831H6.45564V2.30265ZM0.719578 4.04334H1.4323V4.61901H0.719578V4.04334ZM1.07594 4.61901H1.79552V5.19467H1.07594V4.61901ZM2.5151 4.04334H3.22097V4.61901H2.50824L2.5151 4.04334ZM2.15188 4.61901H2.86461V5.19467H2.15188V4.61901ZM1.4323 5.19467H2.50824V5.75663H1.43916L1.4323 5.19467ZM1.78867 5.75663H2.15188V6.33914H1.78181L1.78867 5.75663ZM4.30376 4.02964H5.01649V4.61215H4.30376V4.02964ZM4.66013 4.61215H5.3797V5.18782H4.66013V4.61215ZM6.09928 4.03649H6.81201V4.61215H6.09243L6.09928 4.03649ZM5.73607 4.61215H6.44194V5.18782H5.74292L5.73607 4.61215ZM5.01649 5.18782H6.09928V5.75663H5.01649V5.18782ZM5.3797 5.75663H5.73607V6.33914H5.3797V5.75663ZM3.58418 5.18782H3.94055V5.75663H3.58418V5.18782ZM0 5.18782H0.356362V5.75663H0V5.18782ZM7.16837 5.18782H7.52473V5.75663H7.16837V5.18782ZM1.78867 8.06613H2.15188V8.64179H1.78181L1.78867 8.06613ZM1.4323 8.64179H2.50824V9.21745H1.43916L1.4323 8.64179ZM1.07594 9.21745H2.87146V9.79312H1.07594V9.21745ZM5.3797 8.06613H5.73607V8.64179H5.3797V8.06613Z" fill="#B20000"/>
<path fill-rule="evenodd" clip-rule="evenodd" d="M5.01649 8.6418H6.09928V9.21746H5.01649V8.6418ZM4.66013 9.21746H6.44879V9.79312H4.66013V9.21746ZM5.01649 12.0958H6.81201V12.6783H5.01649V12.0958ZM4.30376 9.79998H6.81201V10.3756H4.30376V9.79998ZM0.719578 9.79998H3.22097V10.3756H0.719578V9.79998ZM1.07594 12.6783H2.15188V13.2608H1.07594V12.6783ZM0.719578 12.1095H2.50824V12.6851H0.719578V12.1095ZM5.73607 10.9513H7.52473V11.5338H5.74292L5.73607 10.9513ZM5.3797 12.6783H6.45564V13.254H5.3797V12.6783ZM1.4323 13.254H1.79552V13.8296H1.4323V13.254ZM5.73607 13.254H6.09243V13.8296H5.73607V13.254ZM0 10.9444H1.79552V11.527H0V10.9444ZM3.22097 12.1026H4.30376V12.6783H3.22097V12.1026ZM3.58418 12.6783H3.94055V13.254H3.58418V12.6783ZM2.50824 10.9444H5.01649V11.527H2.50824V10.9444ZM3.9474 2.30951H4.66013V2.87832H3.94055L3.9474 2.30951ZM3.22097 2.87832H4.29691V3.45398H3.22097V2.87832ZM2.85775 3.45398H3.57733V4.02964H2.86461L2.85775 3.45398ZM3.93369 3.45398H4.66013V4.02964H3.94055L3.93369 3.45398ZM0 2.87832H0.719578V3.45398H0V2.87832ZM0.356362 3.45398H1.07594V4.02964H0.356362V3.45398ZM6.81201 2.87832H7.52473V3.45398H6.81201V2.87832ZM6.44194 3.45398H7.16152V4.02964H6.45564L6.44194 3.45398ZM0 8.6418H0.356362V9.21746H0V8.6418ZM7.16837 8.6418H7.52473V9.21746H7.16837V8.6418ZM3.22782 13.254H4.30376V13.8296H3.22097L3.22782 13.254ZM2.86461 13.8296H3.58418V14.4053H2.86461V13.8296ZM3.94055 13.8296H4.66013V14.4053H3.94055V13.8296ZM2.50824 14.4053H3.22782V14.9809H2.50824V14.4053ZM4.30376 14.4053H5.01649V14.9809H4.30376V14.4053ZM2.15188 14.9809H2.87146V15.5566H2.15188V14.9809ZM4.66013 14.9809H5.3797V15.5566H4.66013V14.9809ZM1.78867 15.5566H2.50824V16.1323H1.78867V15.5566ZM5.01649 15.5566H5.73607V16.1323H5.01649V15.5566ZM1.07594 16.1323H2.15188V16.7079H1.07594V16.1323ZM5.3797 16.1323H6.45564V16.7079H5.3797V16.1323ZM6.09243 15.5566H6.81201V16.1323H6.09243V15.5566ZM6.45564 14.9809H7.16837V15.5566H6.45564V14.9809ZM6.81201 14.4053H7.52473V14.9809H6.81201V14.4053ZM0.712725 15.5566H1.43916V16.1323H0.719578L0.712725 15.5566ZM0.356362 14.9809H1.07594V15.5566H0.356362V14.9809Z" fill="#B20000"/>
<path fill-rule="evenodd" clip-rule="evenodd" d="M0 14.4053H0.719578V14.981H0V14.4053ZM1.43916 16.7079H1.79552V17.2836H1.4323L1.43916 16.7079ZM5.73607 16.7079H6.09243V17.2836H5.73607V16.7079ZM3.58418 14.981H3.94055V15.5566H3.58418V14.981ZM2.50824 16.7079H2.86461V17.2836H2.50824V16.7079ZM4.66013 16.7079H5.01649V17.2836H4.66013V16.7079ZM3.58418 16.7079H3.94055V17.2836H3.58418V16.7079ZM0 16.7079H0.356362V17.2836H0V16.7079ZM7.16837 16.7079H7.52473V17.2836H7.16837V16.7079ZM3.58418 8.64182H3.94055V9.21748H3.58418V8.64182ZM1.79552 2.88519H2.15188V3.454H1.79552V2.88519ZM5.3797 2.88519H5.73607V3.454H5.3797V2.88519ZM3.22097 6.90798H4.29691V7.48364H3.22097V6.90798ZM2.50824 7.49049H3.58418V8.06616H2.50824V7.49049Z" fill="#B20000"/>
<path fill-rule="evenodd" clip-rule="evenodd" d="M2.86458 8.06614H3.2278V8.6418H2.86458V8.06614ZM2.15186 6.91481H2.87143V7.49048H2.15186V6.91481ZM2.50822 6.33915H3.58416V6.91481H2.50822V6.33915ZM2.86458 5.76349H3.2278V6.33915H2.86458V5.76349ZM3.94052 6.33915H5.01646V6.91481H3.94052V6.33915ZM4.30374 5.76349H4.6601V6.33915H4.30374V5.76349ZM4.6601 6.91481H5.37968V7.49048H4.6601V6.91481ZM3.94052 7.49048H5.01646V8.06614H3.94052V7.49048ZM4.30374 8.06614H4.6601V8.6418H4.30374V8.06614ZM5.73604 6.91481H6.45562V7.49048H5.73604V6.91481ZM6.0924 6.33915H7.16834V6.91481H6.09926L6.0924 6.33915ZM6.81198 6.91481H7.52471V7.49048H6.81198V6.91481Z" fill="#B20000"/>
<path fill-rule="evenodd" clip-rule="evenodd" d="M6.09928 7.49048H7.16837V8.06614H6.09928V7.49048ZM6.45564 8.06614H6.81201V8.6418H6.45564V8.06614ZM6.45564 5.76349H6.81201V6.33915H6.45564V5.76349ZM0 6.91481H0.719578V7.49048H0V6.91481ZM0.356362 6.33915H1.43916V6.91481H0.356362V6.33915ZM1.07594 6.91481H1.79552V7.49048H1.07594V6.91481Z" fill="#B20000"/>
<path fill-rule="evenodd" clip-rule="evenodd" d="M0.356362 7.49048H1.43916V8.06614H0.356362V7.49048ZM0.719578 8.06614H1.07594V8.6418H0.719578V8.06614ZM0.719578 5.76349H1.07594V6.33915H0.719578V5.76349ZM0.356362 10.3688H1.79552V10.9445H0.356362V10.3688ZM2.15188 10.3688H3.59104V10.9445H2.15188V10.3688ZM3.94055 10.3688H5.3797V10.9445H3.94055V10.3688ZM5.73607 10.3688H7.17522V10.9445H5.73607V10.3688ZM2.86461 11.5201H4.66013V12.1026H2.86461V11.5201ZM0.356362 11.5201H2.15188V12.1026H0.356362V11.5201ZM5.3797 11.5201H7.16837V12.1026H5.3797V11.5201ZM7.16837 13.8296H7.52473V14.4053H7.16837V13.8296ZM0 13.8296H0.356362V14.4053H0V13.8296ZM0.356362 33.4227H0.719578V32.8402H0.356362V33.4227ZM1.4323 33.4227H2.50824V32.8402H1.43916L1.4323 33.4227ZM1.78867 33.9915H2.15188V33.4227H1.78181L1.78867 33.9915ZM3.58418 33.9915H3.94055V33.4227H3.58418V33.9915ZM5.02334 33.4227H6.09243V32.847H5.01649L5.02334 33.4227ZM5.3797 33.9915H5.73607V33.4227H5.3797V33.9915ZM1.07594 32.8402H1.79552V32.2645H1.07594V32.8402ZM2.15188 32.8402H2.87146V32.2645H2.15188V32.8402ZM4.66013 32.8402H5.3797V32.2645H4.66013V32.8402ZM5.73607 32.8402H6.44194V32.2645H5.74292L5.73607 32.8402ZM2.5151 32.2645H3.22097V31.6889H2.50824L2.5151 32.2645ZM4.29691 32.2645H5.01649V31.6889H4.30376L4.29691 32.2645ZM6.09243 32.2645H6.81201V31.6889H6.09243V32.2645ZM6.81201 33.4227H7.16837V32.8402H6.81201V33.4227ZM0.356362 31.6889H1.07594V31.1132H0.356362V31.6889ZM2.86461 31.6889H3.58418V31.1132H2.86461V31.6889ZM6.45564 31.6889H7.16837V31.1132H6.45564V31.6889ZM0.719578 29.9619H1.4323V29.3862H0.719578V29.9619ZM1.07594 29.3862H1.79552V28.8105H1.07594V29.3862ZM2.5151 29.9619H3.22097V29.3862H2.50824L2.5151 29.9619ZM2.15188 29.3862H2.86461V28.8105H2.15188V29.3862ZM1.4323 28.8105H2.50824V28.2349H1.43916L1.4323 28.8105ZM1.78867 28.2349H2.15188V27.6592H1.78181L1.78867 28.2349ZM4.30376 29.9619H5.01649V29.3862H4.30376V29.9619ZM4.66013 29.3862H5.3797V28.8105H4.66013V29.3862ZM6.09928 29.9619H6.81201V29.3862H6.09243L6.09928 29.9619ZM5.73607 29.3862H6.44194V28.8105H5.74292L5.73607 29.3862ZM5.01649 28.8105H6.09928V28.2349H5.01649V28.8105ZM5.3797 28.2349H5.73607V27.6592H5.3797V28.2349ZM3.58418 28.8105H3.94055V28.2349H3.58418V28.8105ZM0 28.8105H0.356362V28.2349H0V28.8105ZM7.16837 28.8105H7.52473V28.2349H7.16837V28.8105ZM1.79552 25.9322H2.15188V25.3497H1.79552V25.9322Z" fill="#B20000"/>
<path fill-rule="evenodd" clip-rule="evenodd" d="M1.43916 25.3566H2.50824V24.7741H1.43916V25.3566ZM1.07594 24.7741H2.87146V24.1984H1.07594V24.7741ZM5.3797 25.9254H5.73607V25.3566H5.3797V25.9254ZM5.01649 25.3566H6.09928V24.7741H5.01649V25.3566ZM4.66013 24.7741H6.44879V24.1984H4.66013V24.7741ZM5.01649 21.8957H6.81201V21.3201H5.01649V21.8957ZM4.30376 24.1984H6.81201V23.6227H4.30376V24.1984ZM0.719578 24.1984H3.22097V23.6227H0.719578V24.1984ZM1.07594 21.3201H2.15188V20.7444H1.07594V21.3201ZM0.719578 21.8957H2.50824V21.3201H0.719578V21.8957ZM5.73607 23.0471H7.52473V22.4783H5.74292L5.73607 23.0471ZM5.3797 21.3201H6.45564V20.7444H5.3797V21.3201ZM0 23.0471H1.79552V22.4783H0V23.0471ZM3.22097 21.8957H4.30376V21.3201H3.22097V21.8957ZM3.58418 21.3201H3.94055V20.7444H3.58418V21.3201ZM2.50824 23.0471H5.01649V22.4783H2.50824V23.0471ZM3.9474 31.6889H4.66013V31.1132H3.94055L3.9474 31.6889ZM3.22097 31.1132H4.29691V30.5375H3.22097V31.1132ZM2.85775 30.5375H3.57733V29.9619H2.86461L2.85775 30.5375ZM3.93369 30.5375H4.66013V29.9619H3.94055L3.93369 30.5375ZM0 31.1132H0.719578V30.5375H0V31.1132ZM0.356362 30.5375H1.07594V29.9619H0.356362V30.5375ZM6.81201 31.1132H7.52473V30.5375H6.81201V31.1132ZM6.44879 30.5375H7.16837V29.9619H6.45564L6.44879 30.5375ZM0 25.3566H0.356362V24.7809H0V25.3566ZM7.16837 25.3566H7.52473V24.7809H7.16837V25.3566ZM2.86461 20.1756H3.58418V19.5999H2.86461V20.1756ZM3.94055 20.1756H4.66013V19.5999H3.94055V20.1756ZM2.50824 19.5999H3.22782V19.0243H2.50824V19.5999ZM4.30376 19.5999H5.01649V19.0243H4.30376V19.5999ZM2.15188 19.0174H2.86461V18.4349H2.15188V19.0174ZM4.66013 19.0174H5.3797V18.4349H4.66013V19.0174ZM1.78867 18.4349H2.50824V17.8661H1.78867V18.4349ZM5.01649 18.4349H5.73607V17.8661H5.01649V18.4349ZM1.07594 17.8661H2.15188V17.2836H1.07594V17.8661ZM5.3797 17.8661H6.45564V17.2836H5.3797V17.8661ZM6.09243 18.4418H6.81201V17.8593H6.09243V18.4418ZM6.45564 19.0106H7.16837V18.4418H6.45564V19.0106ZM6.81201 19.5931H7.52473V19.0174H6.81201V19.5931ZM0.712725 18.4418H1.43916V17.8593H0.719578L0.712725 18.4418ZM0.356362 19.0106H1.07594V18.4418H0.356362V19.0106ZM0 19.5999H0.719578V19.0243H0V19.5999ZM1.43916 17.2904H1.79552V16.7148H1.4323L1.43916 17.2904ZM3.58418 19.0243H3.94055V18.4349H3.58418V19.0243ZM3.58418 25.3634H3.94055V24.7809H3.58418V25.3634ZM1.79552 31.1201H2.15188V30.5444H1.79552V31.1201ZM5.3797 31.1201H5.73607V30.5444H5.3797V31.1201ZM3.22097 27.0836H4.29691V26.5079H3.22097V27.0836ZM2.50139 26.5079H3.57733V25.9322H2.50824L2.50139 26.5079ZM2.85775 25.9254H3.22097V25.3566H2.85775V25.9254ZM2.14503 27.0836H2.85775V26.5079H2.15188L2.14503 27.0836ZM2.50824 27.6592H3.58418V27.0836H2.50824V27.6592ZM2.86461 28.2349H3.22782V27.6592H2.86461V28.2349ZM3.94055 27.6592H5.01649V27.0836H3.94055V27.6592ZM4.30376 28.2349H4.66013V27.6592H4.30376V28.2349ZM4.66013 27.0836H5.3797V26.5079H4.66013V27.0836ZM3.94055 26.5079H5.01649V25.9322H3.94055V26.5079ZM4.30376 25.9254H4.66013V25.3566H4.30376V25.9254ZM5.73607 27.0836H6.44194V26.5079H5.74292L5.73607 27.0836ZM6.09243 27.6592H7.16837V27.0836H6.09928L6.09243 27.6592ZM6.81201 27.0836H7.52473V26.5079H6.81201V27.0836ZM6.09243 26.5079H7.16837V25.9322H6.09928L6.09243 26.5079ZM6.45564 25.9254H6.81201V25.3566H6.45564V25.9254ZM6.45564 28.2349H6.81201V27.6592H6.45564V28.2349ZM0 27.0836H0.719578V26.5079H0V27.0836Z" fill="#B20000"/>
<path fill-rule="evenodd" clip-rule="evenodd" d="M0.356362 27.6592H1.43916V27.0836H0.356362V27.6592ZM1.07594 27.0836H1.79552V26.5079H1.07594V27.0836ZM0.356362 26.5079H1.43916V25.9322H0.356362V26.5079ZM0.719578 25.9254H1.07594V25.3566H0.719578V25.9254ZM0.719578 28.2349H1.07594V27.6592H0.719578V28.2349ZM0.356362 23.6227H1.79552V23.0471H0.356362V23.6227ZM2.15188 23.6227H3.59104V23.0471H2.15188V23.6227ZM3.94055 23.6227H5.3797V23.0471H3.94055V23.6227ZM5.73607 23.6227H7.17522V23.0471H5.73607V23.6227ZM2.86461 22.4783H4.66013V21.9026H2.86461V22.4783ZM0.356362 22.4783H2.15188V21.9026H0.356362V22.4783ZM5.3797 22.4783H7.16837V21.9026H5.3797V22.4783ZM7.16837 20.1756H7.52473V19.5999H7.16837V20.1756ZM0 20.1688H0.356362V19.5931H0V20.1688ZM3.22097 17.2904H3.58418V17.8593H3.22782L3.22097 17.2904ZM3.94055 17.2904H4.30376V17.8593H3.94055V17.2904ZM3.94055 16.1323H4.30376V16.7079H3.94055V16.1323ZM3.22782 16.1323H3.58418V16.7079H3.22782V16.1323ZM0.719578 31.6889H1.4323V32.2645H0.719578V31.6889ZM5.73607 20.7444H6.09243V20.1688H5.73607V20.7444ZM1.4323 20.7444H1.78867V20.1688H1.43916L1.4323 20.7444ZM3.22782 20.1688H4.30376V20.7444H3.22097L3.22782 20.1688Z" fill="#B20000"/>
</g>
</g>
<defs>
<clipPath id="clip0_5407_521">
<path d="M0 17C0 7.61116 7.61116 0 17 0C26.3888 0 34 7.61116 34 17C34 26.3888 26.3888 34 17 34C7.61116 34 0 26.3888 0 17Z" fill="white"/>
</clipPath>
</defs>
</svg>
