<svg width="34" height="34" viewBox="0 0 34 34" fill="none" xmlns="http://www.w3.org/2000/svg">
<g clip-path="url(#clip0_5407_1339)">
<path fill-rule="evenodd" clip-rule="evenodd" d="M0 0H34V34H0V0Z" fill="#6FDCFF"/>
<path fill-rule="evenodd" clip-rule="evenodd" d="M2.85542 33.0703C3.08784 33.2894 3.00815 33.668 3.6523 33.6215C4.62847 33.6215 4.65503 33.0238 4.65503 32.6055C4.65503 32.1871 3.19409 31.6094 3.12769 30.9918C3.06128 30.3742 3.46636 30.2082 3.80503 30.2082C4.13706 30.2082 4.37612 30.4074 4.37612 30.5734C4.37612 30.7394 4.21011 30.7926 3.97769 30.7926C3.74526 30.7926 4.07729 30.673 3.87144 30.5734C3.66558 30.4738 3.5394 30.7195 3.5394 30.8723C3.5394 31.0183 4.04409 31.0648 4.37612 30.9586C4.44253 31.2906 4.48237 31.3105 4.00425 31.875C4.34292 31.6558 4.37612 31.6094 4.748 31.7289C4.37612 31.4101 4.65503 30.7594 4.66831 30.5933C4.68159 30.4273 4.6019 30.2281 4.44917 30.1285C4.1769 29.8894 3.58589 29.8762 3.23394 30.0355C2.71597 30.2613 2.6894 30.9387 2.82886 31.1644L4.25659 32.6254C4.3562 32.798 4.3894 33.2762 3.78511 33.3027C3.14097 33.3492 2.92183 32.4793 2.80894 32.1871C2.6562 32.5058 2.49019 33.3824 1.84604 33.3293C1.24175 33.3094 1.12222 32.8312 1.22183 32.6586L2.6894 31.1644C2.82222 30.9387 2.80229 30.2613 2.29097 30.0355C1.93237 29.8762 1.34136 29.8894 1.06909 30.1351C0.922998 30.2281 0.83667 30.4273 0.849951 30.5933C0.863232 30.7594 1.14214 31.4101 0.770264 31.7223C1.14214 31.6027 1.1687 31.6558 1.50737 31.875C1.04253 31.3105 1.06909 31.284 1.14214 30.9519C1.47417 31.0648 1.9855 31.0183 1.9855 30.8723C1.9855 30.7195 1.85269 30.4738 1.64683 30.5734C1.44761 30.673 1.77964 30.7926 1.54722 30.7926C1.30815 30.7926 1.14214 30.7461 1.14214 30.5734C1.14214 30.4008 1.37456 30.2082 1.71323 30.2082C2.0519 30.2082 2.45698 30.3808 2.38394 30.9918C2.31753 31.6027 0.823389 32.2734 0.823389 32.6918C0.823389 33.1101 0.929639 33.6215 1.90581 33.6215C2.54995 33.668 2.623 33.2894 2.85542 33.0637V33.0703Z" fill="#FFE400"/>
<path fill-rule="evenodd" clip-rule="evenodd" d="M2.77577 24.3047C3.00819 24.0789 3.19413 23.4082 3.83827 23.4614C4.81444 23.4614 5.18632 23.9993 5.18632 24.4176C5.18632 24.836 3.19413 28.2493 3.12772 28.8668C3.06132 29.4778 3.46639 29.6504 3.80507 29.6504C4.1371 29.6504 4.37616 29.4512 4.37616 29.2785C4.37616 29.1059 4.21014 29.0594 3.97772 29.0594C3.7453 29.0594 4.07069 29.1789 3.87147 29.2785C3.67225 29.3782 3.53944 29.1325 3.53944 28.9864C3.53944 28.8336 4.03749 28.7871 4.37616 28.9C4.44257 28.568 4.47577 28.5414 4.00428 27.977C4.34296 28.1961 4.37616 28.2426 4.74803 28.1231C4.37616 28.4418 4.65507 29.0926 4.66835 29.2586C4.68163 29.4246 4.60194 29.6239 4.44257 29.7235C4.17694 29.9692 3.57928 29.9758 3.23397 29.8164C2.716 29.5907 2.68944 28.9133 2.82889 28.6875L4.74803 24.5371C4.84764 24.3645 4.58202 23.8067 3.97108 23.7801C3.33358 23.727 3.1078 24.3977 3.00155 24.6899L3.87147 24.6235C3.87147 24.6235 3.90468 24.7563 3.87147 24.8493C3.41991 24.8758 3.00155 24.9621 3.00155 24.9621L2.96835 25.4004H3.39999L3.36014 25.5996C3.36014 25.5996 3.00155 25.5731 2.96171 25.5996C2.9285 25.6262 2.8953 26.0446 2.8953 26.0446C2.8953 26.0446 2.82889 26.0645 2.76249 26.0645C2.6828 26.0645 2.61639 26.0446 2.61639 26.0446C2.61639 26.0446 2.58319 25.6262 2.54999 25.5996C2.51678 25.5731 2.15155 25.5996 2.15155 25.5996L2.11835 25.4004H2.54999L2.51678 24.9621C2.51678 24.9621 2.09178 24.8758 1.64022 24.8493C1.60702 24.7629 1.64022 24.6301 1.64022 24.6301L2.51678 24.6965C2.40389 24.3977 2.18475 23.727 1.54061 23.7801C0.936316 23.8 0.66405 24.3645 0.76366 24.5371L2.68944 28.6875C2.82225 28.9133 2.79569 29.5907 2.28436 29.8164C1.93241 29.9758 1.34139 29.9692 1.06913 29.7235C0.916394 29.6239 0.836707 29.4246 0.849988 29.2586C0.863269 29.0926 1.13553 28.4418 0.76366 28.1297C1.13553 28.2493 1.16874 28.1961 1.50741 27.977C1.04257 28.5414 1.06913 28.568 1.13553 28.9C1.47421 28.7871 1.97889 28.8336 1.97889 28.9864C1.97889 29.1325 1.84608 29.3782 1.64686 29.2785C1.441 29.1789 1.77968 29.0594 1.54061 29.0594C1.30819 29.0594 1.14218 29.1059 1.14218 29.2785C1.14218 29.4512 1.3746 29.6504 1.71327 29.6504C2.05194 29.6504 2.45038 29.4778 2.38397 28.8602C2.31757 28.2493 0.325378 24.836 0.325378 24.411C0.325378 23.9993 0.697253 23.4614 1.67343 23.4614C2.31757 23.4082 2.54335 24.0789 2.77577 24.3047Z" fill="#FFE400"/>
<path fill-rule="evenodd" clip-rule="evenodd" d="M2.77576 22.6113C3.00818 22.8371 3.19412 23.5078 3.83826 23.4546C4.81443 23.4546 5.1863 22.9167 5.1863 22.4984C5.1863 22.08 3.19412 18.6667 3.12771 18.0492C3.0613 17.4382 3.46638 17.2656 3.80505 17.2656C4.13708 17.2656 4.37615 17.4648 4.37615 17.6374C4.37615 17.8101 4.21013 17.8566 3.97771 17.8566C3.74529 17.8566 4.07732 17.7371 3.87146 17.6374C3.6656 17.5378 3.53943 17.7835 3.53943 17.9296C3.53943 18.0824 4.03748 18.1289 4.37615 18.016C4.44255 18.348 4.47576 18.3746 4.00427 18.939C4.34294 18.7199 4.37615 18.6734 4.74802 18.7929C4.37615 18.4742 4.65505 17.8234 4.66833 17.6574C4.68162 17.4914 4.60193 17.2921 4.44255 17.1925C4.17693 16.9468 3.57927 16.9402 3.23396 17.0996C2.71599 17.3253 2.68943 18.0027 2.82888 18.2285L4.74802 22.3789C4.84763 22.5515 4.58201 23.1093 3.97107 23.1359C3.33357 23.189 3.10779 22.5183 3.00154 22.2261L3.87146 22.2925C3.87146 22.2925 3.90466 22.1597 3.87146 22.0667C3.4199 22.0335 3.00154 21.9539 3.00154 21.9539L2.96834 21.5156H3.38669L3.35349 21.3164C3.35349 21.3164 2.9949 21.3429 2.95505 21.3164C2.92849 21.2898 2.88865 20.8714 2.88865 20.8714C2.88865 20.8714 2.82224 20.8515 2.75584 20.8515C2.67615 20.8515 2.60974 20.8714 2.60974 20.8714C2.60974 20.8714 2.57654 21.2898 2.54333 21.3164C2.51013 21.3429 2.1449 21.3164 2.1449 21.3164L2.11169 21.5156H2.54333L2.51013 21.9539C2.51013 21.9539 2.08513 22.0335 1.63357 22.0667C1.60037 22.1531 1.63357 22.2859 1.63357 22.2859L2.51013 22.2195C2.39724 22.5183 2.1781 23.189 1.53396 23.1359C0.929663 23.116 0.657397 22.5515 0.763647 22.3789L2.68279 18.2285C2.8156 18.0027 2.78904 17.3253 2.27771 17.0996C1.92576 16.9402 1.33474 16.9468 1.06248 17.1925C0.909741 17.2921 0.830054 17.4914 0.843335 17.6574C0.856616 17.8234 1.12888 18.4742 0.757007 18.7863C1.12888 18.6667 1.16208 18.7199 1.50076 18.939C1.02927 18.3746 1.06248 18.348 1.12888 18.016C1.46755 18.1289 1.97224 18.0824 1.97224 17.9296C1.97224 17.7769 1.83943 17.5378 1.64021 17.6374C1.44099 17.7371 1.77302 17.8566 1.53396 17.8566C1.30154 17.8566 1.13552 17.8101 1.13552 17.6374C1.13552 17.4648 1.36794 17.2722 1.70662 17.2722C2.04529 17.2722 2.44373 17.4382 2.37732 18.0558C2.31091 18.6667 0.318726 22.08 0.318726 22.505C0.318726 22.9167 0.690601 23.4546 1.66677 23.4546C2.31091 23.5078 2.53669 22.8371 2.76912 22.6113H2.77576Z" fill="#FFE400"/>
<path fill-rule="evenodd" clip-rule="evenodd" d="M2.77577 11.3688C3.00819 11.143 3.19413 10.4723 3.83827 10.5188C4.81444 10.5188 5.18632 11.0633 5.18632 11.4817C5.18632 11.8934 3.19413 15.3067 3.12772 15.9242C3.06132 16.5352 3.46639 16.7078 3.80507 16.7078C4.1371 16.7078 4.37616 16.5086 4.37616 16.3426C4.37616 16.1766 4.21014 16.1168 3.97772 16.1168C3.7453 16.1168 4.07069 16.243 3.87147 16.3426C3.67225 16.4422 3.53944 16.1965 3.53944 16.0438C3.53944 15.8977 4.03749 15.8446 4.37616 15.9575C4.44257 15.6254 4.47577 15.6055 4.00428 15.041C4.34296 15.2602 4.37616 15.3067 4.74803 15.1871C4.37616 15.5059 4.65507 16.1567 4.66835 16.316C4.68163 16.4754 4.60194 16.6813 4.44257 16.7809C4.17694 17.0266 3.57928 17.0399 3.23397 16.8805C2.716 16.6481 2.68944 15.9707 2.82889 15.7516L4.74803 11.6012C4.84764 11.4285 4.58202 10.8641 3.97108 10.8375C3.33358 10.791 3.1078 11.4617 3.00155 11.7539L3.87147 11.6875C3.87147 11.6875 3.90468 11.8203 3.87147 11.9133C3.41991 11.9399 3.00155 12.0196 3.00155 12.0196L2.96835 12.4645H3.39999L3.36014 12.6637C3.36014 12.6637 3.00155 12.6371 2.96171 12.6637C2.9285 12.6836 2.8953 13.102 2.8953 13.102C2.8953 13.102 2.82889 13.1285 2.76249 13.1285C2.6828 13.1285 2.61639 13.102 2.61639 13.102C2.61639 13.102 2.58319 12.6836 2.54999 12.6637C2.51678 12.6371 2.15155 12.6637 2.15155 12.6637L2.11835 12.4645H2.54999L2.51678 12.0196C2.51678 12.0196 2.09178 11.9399 1.64022 11.9133C1.60702 11.827 1.64022 11.6875 1.64022 11.6875L2.51678 11.7539C2.40389 11.4617 2.18475 10.791 1.54061 10.8375C0.936316 10.8641 0.66405 11.4285 0.76366 11.6012L2.68944 15.7516C2.82225 15.9707 2.79569 16.6481 2.28436 16.8805C1.93241 17.0399 1.34139 17.0266 1.06913 16.7809C0.916394 16.6879 0.836707 16.4887 0.849988 16.316C0.863269 16.1434 1.13553 15.5059 0.76366 15.1871C1.13553 15.3067 1.16874 15.2602 1.50741 15.041C1.04257 15.6055 1.06913 15.6321 1.13553 15.9575C1.47421 15.8512 1.97889 15.8977 1.97889 16.0438C1.97889 16.1899 1.84608 16.4422 1.64686 16.3426C1.441 16.243 1.77968 16.1168 1.54061 16.1168C1.30819 16.1168 1.14218 16.17 1.14218 16.3426C1.14218 16.5153 1.3746 16.7078 1.71327 16.7078C2.05194 16.7078 2.45038 16.5352 2.38397 15.9242C2.31757 15.3067 0.325378 11.8934 0.325378 11.475C0.325378 11.0633 0.697253 10.5188 1.67343 10.5188C2.31757 10.4723 2.54335 11.143 2.77577 11.3688Z" fill="#FFE400"/>
<path fill-rule="evenodd" clip-rule="evenodd" d="M2.77577 9.67543C3.00819 9.90121 3.19413 10.5653 3.83827 10.5188C4.81444 10.5188 5.18632 9.9809 5.18632 9.56254C5.18632 9.14418 3.19413 5.7309 3.12772 5.11332C3.06132 4.50238 3.46639 4.32973 3.80507 4.32973C4.1371 4.32973 4.37616 4.52895 4.37616 4.69496C4.37616 4.86098 4.21014 4.92074 3.97772 4.92074C3.7453 4.92074 4.07733 4.79457 3.87147 4.69496C3.66561 4.59535 3.53944 4.8477 3.53944 4.99379C3.53944 5.13988 4.03749 5.19301 4.37616 5.08012C4.44257 5.41215 4.47577 5.43207 4.00428 5.99653C4.34296 5.77738 4.37616 5.7309 4.74803 5.85043C4.37616 5.53168 4.65507 4.8809 4.66835 4.72152C4.68163 4.56215 4.60194 4.35629 4.44257 4.25668C4.17694 4.01098 3.57928 3.9977 3.23397 4.15707C2.716 4.38949 2.68944 5.06684 2.82889 5.28598L4.74803 9.43637C4.84764 9.60903 4.58202 10.1735 3.97108 10.2C3.33358 10.2465 3.1078 9.57582 3.00155 9.28363L3.87147 9.35004C3.87147 9.35004 3.90468 9.21723 3.87147 9.12426C3.57973 9.10524 3.28929 9.06977 3.00155 9.01801L2.96835 8.57309H3.38671L3.3535 8.37387C3.3535 8.37387 2.99491 8.40043 2.95507 8.37387C2.9285 8.35395 2.88866 7.93559 2.88866 7.93559C2.88866 7.93559 2.82225 7.90902 2.75585 7.90902C2.67616 7.90902 2.60975 7.93559 2.60975 7.93559C2.60975 7.93559 2.57655 8.35395 2.54335 8.38051C2.51014 8.40043 2.14491 8.38051 2.14491 8.38051L2.11171 8.57973H2.54335L2.51014 9.01801C2.51014 9.01801 2.08514 9.0977 1.63358 9.12426C1.61503 9.19838 1.61503 9.27592 1.63358 9.35004L2.51014 9.28363C2.39725 9.57582 2.17811 10.2465 1.53397 10.2C0.929675 10.1735 0.65741 9.60903 0.76366 9.43637L2.6828 5.28598C2.81561 5.06684 2.78905 4.38949 2.27772 4.15707C1.92577 3.9977 1.33475 4.01098 1.06249 4.25668C0.909753 4.35629 0.830066 4.54887 0.843347 4.72152C0.856628 4.89418 1.12889 5.53168 0.757019 5.85043C1.12889 5.7309 1.1621 5.78403 1.50077 5.99653C1.02928 5.43207 1.06249 5.41215 1.12889 5.08012C1.46757 5.18637 1.97225 5.14652 1.97225 4.99379C1.97225 4.84106 1.83944 4.59535 1.64022 4.69496C1.441 4.79457 1.77303 4.92074 1.53397 4.92074C1.30155 4.92074 1.13553 4.86762 1.13553 4.69496C1.13553 4.52231 1.36796 4.32973 1.70663 4.32973C2.0453 4.32973 2.45038 4.50238 2.38397 5.11332C2.31757 5.7309 0.325378 9.14418 0.325378 9.56254C0.325378 9.9809 0.697253 10.5188 1.67343 10.5188C2.31757 10.5653 2.54335 9.90121 2.77577 9.67543Z" fill="#FFE400"/>
<path fill-rule="evenodd" clip-rule="evenodd" d="M2.85542 0.909748C3.08784 0.683967 3.00815 0.312092 3.6523 0.351936C4.62847 0.351936 4.65503 0.949592 4.65503 1.36795C4.65503 1.78631 3.19409 2.37069 3.12769 2.98162C3.06128 3.5992 3.46636 3.77186 3.80503 3.77186C4.13706 3.77186 4.37612 3.57264 4.37612 3.39998C4.37612 3.22733 4.21011 3.18748 3.98433 3.18748C3.75854 3.18748 4.08394 3.31365 3.87808 3.40662C3.67222 3.49959 3.54605 3.26053 3.54605 3.11444C3.54605 2.96834 4.05073 2.91522 4.38276 3.02811C4.44917 2.69608 4.48901 2.66951 4.01089 2.10506C4.34292 2.3242 4.38276 2.37069 4.748 2.2578C4.37612 2.57655 4.65503 3.22733 4.66831 3.3867C4.68159 3.54608 4.6019 3.75194 4.44917 3.85155C4.1769 4.09725 3.58589 4.11053 3.23394 3.95115C2.71597 3.71873 2.6894 3.04139 2.82886 2.82225L4.25659 1.36131C4.3562 1.18201 4.3894 0.703889 3.78511 0.677326C3.14097 0.630842 2.92183 1.5074 2.80894 1.79295C2.6562 1.4742 2.49019 0.597639 1.84604 0.644123C1.24175 0.670686 1.12222 1.14881 1.22183 1.32147L2.6894 2.81561C2.82222 3.03475 2.80229 3.71209 2.29097 3.94451C1.93237 4.10389 1.34136 4.09061 1.06909 3.8449C0.922998 3.7453 0.83667 3.55272 0.849951 3.38006C0.863232 3.2074 1.14214 2.5699 0.770264 2.25115C1.14214 2.37069 1.1687 2.31756 1.50737 2.09842C1.04253 2.66287 1.06909 2.69608 1.14214 3.02147C1.47417 2.90858 1.9855 2.95506 1.9855 3.1078C1.9855 3.25389 1.85269 3.50623 1.64683 3.39998C1.44761 3.30701 1.77964 3.18084 1.54722 3.18084C1.30815 3.18084 1.14214 3.23397 1.14214 3.39998C1.14214 3.566 1.37456 3.77186 1.71323 3.77186C2.0519 3.77186 2.45698 3.5992 2.38394 2.98162C2.31753 2.37069 0.823389 1.69998 0.823389 1.28162C0.823389 0.863264 0.929639 0.351936 1.90581 0.351936C2.54995 0.305451 2.623 0.683967 2.85542 0.909748Z" fill="#FFE400"/>
<path d="M24.9754 14.9514C24.9754 11.9935 22.4453 9.5957 19.3242 9.5957C16.2032 9.5957 13.673 11.9935 13.673 14.9514C13.673 17.9092 16.2032 20.307 19.3242 20.307C22.4453 20.307 24.9754 17.9092 24.9754 14.9514Z" fill="#FFE400"/>
<path fill-rule="evenodd" clip-rule="evenodd" d="M19.0586 6.40154C19.0055 6.40154 18.7531 8.18123 18.6602 8.57966C18.5672 9.47615 19.8555 9.44294 19.643 8.54646L19.0586 6.3949V6.40154ZM19.5102 23.6539C19.5567 23.6539 19.9418 21.8941 20.068 21.5023C20.2207 20.6191 18.9324 20.5726 19.0719 21.4758L19.5102 23.6539ZM10.5055 14.9148C10.5055 14.9613 12.3582 15.3332 12.7699 15.4527C13.6996 15.6054 13.766 14.3902 12.8098 14.523L10.5055 14.9215V14.9148ZM28.5481 15.1273C28.5481 15.0808 26.6754 14.7754 26.2571 14.6691C25.3207 14.5562 25.3141 15.7715 26.2571 15.6054L28.5481 15.1273ZM12.4047 9.27029C12.3715 9.30349 13.5934 10.6847 13.8391 11.0234C14.4766 11.6875 15.3199 10.7578 14.4766 10.3062L12.4047 9.27693V9.27029ZM26.4231 20.6258C26.4563 20.5926 25.1149 19.3176 24.836 19.0054C24.1387 18.3945 23.3883 19.384 24.2649 19.7691L26.4231 20.6324V20.6258ZM15.2004 7.34451C15.1606 7.36443 15.7317 9.07771 15.8246 9.48279C16.1434 10.3261 17.2989 9.77498 16.7012 9.05115L15.2071 7.34451H15.2004ZM23.375 22.7773C23.4215 22.7574 22.9766 21.0109 22.9168 20.6058C22.6578 19.7426 21.4692 20.2074 22.0071 20.9777L23.3817 22.7707L23.375 22.7773ZM25.3871 8.53982C25.3473 8.50662 23.8731 9.64216 23.5145 9.86794C22.8039 10.4656 23.7668 11.2758 24.2582 10.4855L25.3871 8.53982ZM13.2348 21.4027C13.268 21.4359 14.8285 20.4066 15.2004 20.2008C15.9508 19.6562 15.0543 18.7797 14.5031 19.5367L13.2414 21.4027H13.2348ZM10.9106 11.8336C10.8906 11.8734 12.5043 12.8097 12.8563 13.0554C13.6864 13.4871 14.1711 12.3582 13.2215 12.1789L10.9106 11.8336ZM27.7578 18.3679C27.7778 18.3281 26.2305 17.2855 25.8985 17.0199C25.1016 16.5285 24.5371 17.6242 25.4735 17.8633L27.7578 18.3679ZM22.4055 6.8863C22.359 6.87302 21.436 8.44021 21.1903 8.77888C21.1907 8.88703 21.225 8.99233 21.2883 9.08C21.3517 9.16767 21.4408 9.23332 21.5434 9.26774C21.6459 9.30216 21.7566 9.30363 21.86 9.27193C21.9634 9.24023 22.0543 9.17696 22.1199 9.09099L22.4055 6.8863ZM16.1699 23.1094C16.2164 23.1293 17.2524 21.6219 17.518 21.2965C18.0028 20.5261 16.8274 20.0347 16.6082 20.9246L16.1699 23.1094ZM11.0235 18.5074C11.0434 18.5472 12.8828 18.109 13.3145 18.0426C14.2176 17.7902 13.7129 16.6746 12.916 17.1926L11.0235 18.5074ZM27.7645 11.6875C27.7512 11.6476 25.8852 11.9597 25.4535 11.9996C24.5239 12.1922 24.9555 13.341 25.7856 12.8761L27.7645 11.6875Z" fill="#FFE400"/>
<path fill-rule="evenodd" clip-rule="evenodd" d="M20.8914 6.51445C20.8449 6.50781 20.2207 8.20117 20.0348 8.57305C19.7625 9.43633 21.0309 9.64883 21.011 8.73242L20.8981 6.50781L20.8914 6.51445ZM17.6707 23.5078C17.7172 23.5211 18.4676 21.8676 18.6801 21.5023C19.0121 20.6656 17.7637 20.3734 17.7172 21.2832L17.6641 23.5078H17.6707ZM17.0266 6.68047C16.9801 6.69375 17.1528 8.48672 17.1528 8.89844C17.2789 9.78164 18.5207 9.47617 18.109 8.65273L17.0266 6.68047ZM21.5422 23.4082C21.5887 23.4016 21.5422 21.602 21.5754 21.1902C21.5156 20.2938 20.2473 20.5195 20.6059 21.3695L21.5356 23.4082H21.5422ZM13.8258 8.16797C13.786 8.19453 14.6692 9.78164 14.8352 10.1602C15.3133 10.9371 16.3426 10.2066 15.6188 9.58906L13.8258 8.16797ZM24.7696 21.9738C24.8094 21.9473 24.0391 20.3004 23.9063 19.9152C23.4879 19.1117 22.4121 19.7758 23.0828 20.4332L24.7696 21.9738ZM11.4883 10.3992C11.4617 10.4391 12.8895 11.6211 13.1883 11.9266C13.9254 12.4844 14.6094 11.4484 13.7063 11.123L11.4883 10.3992ZM27.0406 19.6762C27.0672 19.6363 25.7324 18.3613 25.4535 18.0426C24.7629 17.4383 24.0059 18.4277 24.8824 18.8129L27.0406 19.6762ZM10.4656 13.1816C10.4524 13.2281 12.2121 13.8988 12.5973 14.0914C13.4871 14.3902 13.7727 13.2016 12.8031 13.175L10.4656 13.1816ZM28.2227 17.0199C28.2426 16.9801 26.536 16.1965 26.1641 15.9773C25.3008 15.6188 24.9223 16.7875 25.8852 16.8805L28.2227 17.0199ZM10.4059 16.6016C10.4125 16.6414 12.3117 16.6148 12.7434 16.648C13.6864 16.6016 13.4606 15.3996 12.5574 15.725L10.4059 16.6016ZM28.3489 13.6133C28.3489 13.5668 26.4496 13.4672 26.0246 13.4074C25.075 13.3941 25.2145 14.6094 26.1375 14.3371L28.3489 13.6066V13.6133ZM12.0328 20.1477C12.0594 20.1875 13.7594 19.3773 14.1578 19.2246C14.9813 18.793 14.2242 17.8035 13.5668 18.4742L12.0328 20.1477ZM26.7949 10.034C26.7684 9.99414 25.0219 10.6914 24.6035 10.8176C23.7469 11.1961 24.4309 12.232 25.1348 11.6078L26.7949 10.034ZM14.7953 22.4984C14.8352 22.5184 16.0504 21.1371 16.3559 20.8449C16.9336 20.1344 15.8246 19.5168 15.4992 20.3801L14.7953 22.4984ZM24.0723 7.63672C24.0391 7.61016 22.7242 8.90508 22.3989 9.17734C21.7746 9.84805 22.8371 10.5387 23.2223 9.70195L24.0656 7.63672H24.0723Z" fill="#FFE400"/>
<path fill-rule="evenodd" clip-rule="evenodd" d="M10.6836 18.5135C10.785 18.856 10.7995 20.7739 12.843 22.6232C14.8719 24.4589 18.3501 24.8699 18.3501 24.8699C18.3501 24.8699 18.3646 25.1301 18.1182 25.1438C17.8719 25.1712 16.6835 24.9384 16.0893 24.7603C15.5096 24.5959 14.9879 24.2945 14.9299 24.3082C14.8574 24.3356 14.7415 24.5274 14.5676 24.5C14.3937 24.4726 13.5531 23.6507 13.1763 23.4315C12.4226 22.8157 11.7554 22.1113 11.1908 21.3355C10.785 20.7191 10.6836 20.3081 10.5532 20.3081C10.4227 20.3081 9.94447 20.6095 9.94447 20.6095C9.94447 20.6095 9.5097 19.993 9.13289 19.0067C8.74159 18.0204 8.78507 17.445 8.87203 17.4039C8.97348 17.3628 8.97347 18.13 9.26332 18.8286C9.55317 19.541 9.95897 19.7602 9.95897 19.7602C9.95897 19.7602 9.6981 19.3903 9.4952 18.4725C9.29231 17.5546 9.20535 16.6642 9.35028 16.3902C9.4952 16.1162 9.62564 16.034 9.64013 16.0477C9.66911 16.0751 9.39376 16.4724 9.58216 17.5272C9.77056 18.582 10.2778 19.4725 10.3937 19.4314C10.5097 19.3903 10.3213 19.1711 10.2488 18.5546C10.1764 17.9382 10.3213 17.5546 10.4807 17.4998C10.5532 17.445 10.6691 18.1848 10.6836 18.5135ZM9.26332 20.267C8.87203 19.9245 8.26334 18.7327 8.13291 18.7875C7.98799 18.856 9.1184 20.5684 9.14739 20.7054C9.17637 20.8698 9.42274 21.3355 9.23434 21.267C9.04594 21.1985 7.69814 19.856 7.85755 20.1163C8.01697 20.3766 9.03144 21.5547 8.97347 21.6232C8.9155 21.6917 8.13291 20.9657 8.10392 21.0616C8.08943 21.1437 8.87203 21.8561 8.85754 21.9383C8.84304 22.0205 8.3503 21.4862 8.3503 21.5958C8.3503 21.7054 8.85754 22.2397 8.85754 22.3219C8.85754 22.4041 8.42276 21.9383 8.56769 22.1849C8.69812 22.4588 9.07492 22.6917 9.06043 22.7739C9.04594 22.8561 8.7416 22.6643 8.7416 22.7054C8.7416 22.7465 9.3068 22.9383 9.43724 23.089C9.58216 23.2397 10.5097 24.2534 11.2053 24.7603C11.901 25.2671 13.9009 26.1576 14.0458 26.1576C14.1763 26.1576 14.3792 25.8836 14.3357 25.774C14.2922 25.6644 12.3357 25.0342 11.7995 24.5685C11.2488 24.1027 9.91549 22.9794 9.79955 22.9246C9.6981 22.8561 9.39376 22.8835 9.39376 22.815C9.39376 22.7465 9.78506 22.8561 9.75607 22.815C9.74158 22.7739 9.21985 22.5547 9.23434 22.5136C9.26333 22.4725 9.59665 22.5958 9.59665 22.5547C9.59665 22.5136 8.98797 22.1986 9.01695 22.1301C9.03145 22.0616 9.46622 22.3219 9.46622 22.2671C9.46622 22.2397 8.88652 21.8561 8.90101 21.7876C8.9155 21.7191 9.35028 22.089 9.33579 22.0068C9.32129 21.9246 8.98797 21.4588 8.98797 21.404C8.98797 21.3355 9.5097 21.8698 9.56767 21.7602C9.59665 21.6643 9.37927 20.7739 9.39376 20.7602C9.40825 20.7465 9.78505 20.952 9.84302 20.8287C9.91549 20.6917 9.58216 20.5136 9.26332 20.267ZM15.9444 27.0069C15.669 27.048 15.5386 26.9521 15.698 26.7329C15.9154 26.7329 16.4951 26.5548 16.698 26.4726C16.9009 26.3904 17.1183 26.2809 17.2922 26.1302C17.4661 25.9521 17.582 26.2261 17.4806 26.3767C17.4081 26.4726 17.0748 26.6507 16.8284 26.7466C16.4661 26.8562 16.1473 27.0206 15.9444 27.0069ZM17.7559 26.3082C17.5675 26.1165 17.7269 25.9795 18.0023 25.8288C18.4081 25.6233 18.2922 25.3356 18.8139 25.1027C19.0458 24.9658 22.2921 23.7329 23.35 23.0753C24.408 22.4178 27.3789 20.2944 28.176 18.8286C28.9586 17.3765 28.5818 17.2669 28.6978 17.2121C28.7992 17.1437 28.9152 17.4176 28.9007 17.7464C28.8717 18.0615 28.6108 19.0204 28.6978 19.1163C28.7847 19.2122 29.8862 18.3629 30.3499 17.3354C30.8137 16.308 31.1615 15.2395 31.3789 15.2395C31.6108 15.2395 31.0021 16.993 30.6108 17.6779C30.234 18.3629 29.7847 18.7053 29.8862 18.856C30.0021 18.993 31.1325 18.1026 31.5238 17.445C31.9006 16.7738 32.2629 16.1847 32.3354 16.308C32.2201 17.1105 31.8854 17.8707 31.3644 18.5135C30.7557 19.1711 30.0311 19.6506 30.147 19.7465C30.2485 19.856 31.0745 19.9656 31.9296 19.4177C32.7991 18.856 32.8861 18.0478 32.9875 18.0889C33.1035 18.13 32.8861 19.2396 32.06 19.9245C31.234 20.6095 30.147 20.678 30.176 20.8287C30.234 20.9657 32.5383 20.1985 32.4948 20.3766C32.4513 20.541 29.5093 21.6369 29.4804 21.7465C29.4804 21.8287 29.9876 21.8561 30.7847 21.678C31.5673 21.5136 32.3209 20.9246 32.4223 21.0616C32.4513 21.2533 31.8571 21.7191 30.9586 21.9383C30.0456 22.1575 29.5963 22.4451 29.5673 22.5136C29.5528 22.5821 31.1905 22.3219 31.1905 22.404C31.1905 22.4862 29.0456 22.8835 29.0311 22.9931C29.0021 23.089 31.06 22.5958 31.0311 22.7191C30.9731 22.815 28.234 23.5822 28.263 23.6233C28.2775 23.6781 30.5528 23.1575 30.5093 23.2397C30.4514 23.3356 26.6833 24.3356 26.6543 24.4041C26.6253 24.4589 29.9876 23.6918 29.9586 23.7602C29.9296 23.8287 28.2195 24.226 28.2195 24.2671C28.2195 24.3082 29.5963 24.0616 29.5673 24.1301C29.5528 24.1849 26.0891 25.0205 26.0167 25.1438C25.9442 25.2808 27.8137 24.8014 27.7847 25.0479C27.7558 25.2945 23.7703 26.5548 23.7558 26.3219C23.7268 26.0891 26.1761 25.5 26.1616 25.4315C26.1326 25.363 24.7558 25.5685 24.7268 25.4452C24.7123 25.3082 25.6398 25.0342 25.5674 24.9795C25.4949 24.911 24.7993 25.1712 24.8573 25.0205C24.9297 24.8699 26.2485 24.2945 26.2195 24.2534C26.2051 24.2123 25.7413 24.3904 25.7848 24.2534C25.8427 24.1027 28.6398 23.3356 28.5963 23.2397C28.5528 23.1575 27.3065 23.4315 27.1905 23.4589C27.1471 23.3767 28.9296 22.7465 28.9007 22.6369C28.8427 22.541 27.9442 23.0068 27.8862 22.8835C27.8572 22.7465 29.4659 22.1575 29.3644 22.0616C29.263 21.9657 28.5384 22.3082 28.4369 22.2123C28.3355 22.1164 29.9586 21.0616 29.7122 21.0342C29.4659 21.0205 29.1615 21.3629 29.1325 21.1437C29.1615 20.8698 30.3934 20.4177 30.118 20.1985C29.6833 20.0752 28.2195 20.2944 27.6108 20.6369C27.0021 20.9794 24.9732 22.8835 24.4804 23.1849C23.9877 23.4726 22.3066 24.1438 21.9877 24.2808C21.495 24.4452 21.408 24.6918 20.9008 24.9384C19.9878 25.1712 20.0023 25.4315 19.5675 25.5822C19.4081 25.6233 17.7704 26.363 17.7559 26.3082ZM15.4661 27.2672C15.1908 27.4042 14.9444 27.7329 15.1038 27.8699C15.1908 28.0343 15.4661 27.5001 15.6835 27.5275L16.8429 27.5823C17.4661 27.6234 17.7704 27.459 18.1182 27.4864C18.4661 27.5138 19.2342 27.3083 19.5965 27.3083C19.9588 27.3083 20.0313 27.3494 20.0602 27.1987C20.1037 27.0617 18.9298 27.1576 18.4081 27.1439C17.8864 27.1165 17.2342 27.2398 16.8429 27.2398C16.4806 27.2261 15.8574 27.1165 15.4661 27.2672Z" fill="#FFE400"/>
<path d="M17.2052 27.1028C17.2052 26.9893 17.0949 26.8973 16.9588 26.8973C16.8228 26.8973 16.7125 26.9893 16.7125 27.1028C16.7125 27.2163 16.8228 27.3083 16.9588 27.3083C17.0949 27.3083 17.2052 27.2163 17.2052 27.1028Z" fill="#FFE400"/>
<path fill-rule="evenodd" clip-rule="evenodd" d="M22.9877 26.7055C23.2341 26.6644 23.9008 26.8836 24.3645 26.9795C25.2051 27.2946 26.7703 27.1439 26.7703 27.2946C26.7703 27.4453 26.6688 27.6233 26.3065 27.6507C25.9442 27.6781 25.0312 27.5138 25.0602 27.5138C25.0891 27.5138 25.7848 27.8288 25.5819 27.911C25.379 27.9932 24.7848 27.7329 24.6834 27.8014C24.5819 27.8699 25.2341 27.9932 25.1181 28.0343C25.0312 28.0754 24.5819 27.9795 24.437 27.9932C24.2921 28.0206 24.5529 28.1713 24.379 28.2261C24.2051 28.2946 23.9153 28.1439 23.7993 28.185C23.6689 28.2261 24.0602 28.459 23.8863 28.4864C23.7124 28.5138 23.3066 28.3768 23.0747 28.3494C22.8428 28.3494 23.2921 28.5686 23.1472 28.596C23.0022 28.6097 22.5964 28.4179 22.495 28.4179C22.3935 28.4179 22.495 28.6919 22.3501 28.6919C22.2051 28.6919 22.0312 28.459 21.9443 28.459C21.8573 28.459 21.9443 28.733 21.7994 28.733C21.6544 28.733 21.5965 28.4453 21.4805 28.459C21.3356 28.4864 21.4805 28.8288 21.2776 28.8015C21.0892 28.7878 21.0602 28.4453 20.9008 28.459C20.7559 28.4864 20.9298 28.8015 20.7849 28.8015C20.64 28.8015 20.611 28.4864 20.466 28.459C20.3211 28.4453 20.3791 28.7604 20.2921 28.7604C20.2052 28.7604 20.1182 28.459 20.0603 28.459C20.0168 28.459 20.0603 28.7604 19.8863 28.733C19.7124 28.7056 19.7124 28.4042 19.669 28.4179C19.611 28.4453 19.611 28.6645 19.495 28.6645C19.3791 28.6645 19.3646 28.4453 19.3211 28.4727C19.2632 28.4864 19.0893 28.7604 18.9733 28.7193C18.8429 28.6782 19.0023 28.459 18.9443 28.459C18.8864 28.459 18.7414 28.6097 18.6545 28.596C18.5675 28.5823 18.6545 28.4042 18.6255 28.4042C18.5965 28.4042 18.3791 28.5138 18.2777 28.5138C18.1762 28.5138 17.9009 28.6508 17.8284 28.5275C17.7559 28.3905 18.0168 28.3905 18.0748 28.2672C18.1183 28.1439 17.9299 27.774 18.1328 27.6507C18.3212 27.5138 18.9443 27.8288 19.8719 27.6096C21.553 27.185 22.8573 26.6918 22.9877 26.7055Z" fill="#FFE400"/>
</g>
<defs>
<clipPath id="clip0_5407_1339">
<path d="M0 17C0 7.61116 7.61116 0 17 0C26.3888 0 34 7.61116 34 17C34 26.3888 26.3888 34 17 34C7.61116 34 0 26.3888 0 17Z" fill="white"/>
</clipPath>
</defs>
</svg>
