<svg width="42" height="42" viewBox="0 0 42 42" fill="none" xmlns="http://www.w3.org/2000/svg">
<path d="M0 21C0 12.5732 0 8.35984 2.02236 5.33316C2.89787 4.02288 4.02288 2.89787 5.33316 2.02236C8.35984 0 12.5732 0 21 0V0C29.4268 0 33.6402 0 36.6668 2.02236C37.9771 2.89787 39.1021 4.02288 39.9776 5.33316C42 8.35984 42 12.5732 42 21V21C42 29.4268 42 33.6402 39.9776 36.6668C39.1021 37.9771 37.9771 39.1021 36.6668 39.9776C33.6402 42 29.4268 42 21 42V42C12.5732 42 8.35984 42 5.33316 39.9776C4.02288 39.1021 2.89787 37.9771 2.02236 36.6668C0 33.6402 0 29.4268 0 21V21Z" fill="#FFB319" fill-opacity="0.1"/>
<path d="M27.48 21.25C27.76 21.25 28 21.01 27.98 20.73C27.71 17.1 24.69 14.25 21 14.25C17.31 14.25 14.29 17.1 14.02 20.73C14 21.01 14.24 21.25 14.52 21.25H27.48Z" fill="#FFB319"/>
<path d="M31 22H30.92C30.37 22 29.92 21.55 29.92 21C29.92 20.45 30.37 20 30.92 20C31.47 20 31.96 20.45 31.96 21C31.96 21.55 31.55 22 31 22ZM11.08 22H11C10.45 22 10 21.55 10 21C10 20.45 10.45 20 11 20C11.55 20 12.04 20.45 12.04 21C12.04 21.55 11.63 22 11.08 22ZM28.01 14.99C27.75 14.99 27.5 14.89 27.3 14.7C26.91 14.31 26.91 13.68 27.3 13.29L27.43 13.16C27.82 12.77 28.45 12.77 28.84 13.16C29.23 13.55 29.23 14.18 28.84 14.57L28.71 14.7C28.52 14.89 28.27 14.99 28.01 14.99ZM13.99 14.99C13.73 14.99 13.48 14.89 13.28 14.7L13.15 14.56C12.76 14.17 12.76 13.54 13.15 13.15C13.54 12.76 14.17 12.76 14.56 13.15L14.69 13.28C15.08 13.67 15.08 14.3 14.69 14.69C14.5 14.89 14.24 14.99 13.99 14.99ZM21 12.04C20.45 12.04 20 11.63 20 11.08V11C20 10.45 20.45 10 21 10C21.55 10 22 10.45 22 11C22 11.55 21.55 12.04 21 12.04Z" fill="#FFB319"/>
<path d="M29 24.75H13C12.59 24.75 12.25 24.41 12.25 24C12.25 23.59 12.59 23.25 13 23.25H29C29.41 23.25 29.75 23.59 29.75 24C29.75 24.41 29.41 24.75 29 24.75Z" fill="#FFB319"/>
<path d="M27 27.75H15C14.59 27.75 14.25 27.41 14.25 27C14.25 26.59 14.59 26.25 15 26.25H27C27.41 26.25 27.75 26.59 27.75 27C27.75 27.41 27.41 27.75 27 27.75Z" fill="#FFB319"/>
<path d="M24 30.75H18C17.59 30.75 17.25 30.41 17.25 30C17.25 29.59 17.59 29.25 18 29.25H24C24.41 29.25 24.75 29.59 24.75 30C24.75 30.41 24.41 30.75 24 30.75Z" fill="#FFB319"/>
</svg>
