<svg width="40" height="40" viewBox="0 0 40 40" fill="none" xmlns="http://www.w3.org/2000/svg">
<path d="M0 20C0 12.5231 0 8.78461 1.60769 6C2.66091 4.17577 4.17577 2.66091 6 1.60769C8.78461 0 12.5231 0 20 0C27.4769 0 31.2154 0 34 1.60769C35.8242 2.66091 37.3391 4.17577 38.3923 6C40 8.78461 40 12.5231 40 20C40 27.4769 40 31.2154 38.3923 34C37.3391 35.8242 35.8242 37.3391 34 38.3923C31.2154 40 27.4769 40 20 40C12.5231 40 8.78461 40 6 38.3923C4.17577 37.3391 2.66091 35.8242 1.60769 34C0 31.2154 0 27.4769 0 20Z" fill="#22C55E" fill-opacity="0.12"/>
<path d="M20.6212 27.294C20.873 27.3526 20.8961 27.6824 20.6508 27.7642L19.2024 28.2408C15.5633 29.4142 13.6474 28.4333 12.4649 24.7942L11.2916 21.1733C10.1183 17.5342 11.0899 15.6092 14.7291 14.4358L15.1248 14.3048C15.5276 14.1714 15.9213 14.576 15.8095 14.9854C15.766 15.1448 15.7238 15.3099 15.6824 15.4808L14.7841 19.3217C13.7758 23.6392 15.2516 26.0225 19.5691 27.0492L20.6212 27.294Z" fill="#22C55E"/>
<path d="M24.7391 11.9425L23.2083 11.585C20.1466 10.8608 18.3225 11.4567 17.25 13.675C16.975 14.2342 16.755 14.9125 16.5716 15.6917L15.6733 19.5325C14.775 23.3642 15.9575 25.2525 19.78 26.16L21.32 26.5267C21.8516 26.655 22.3466 26.7375 22.805 26.7742C25.665 27.0492 27.1866 25.7108 27.9566 22.4017L28.855 18.57C29.7533 14.7383 28.58 12.8408 24.7391 11.9425ZM23.0158 21.2192C22.9333 21.5308 22.6583 21.7325 22.3466 21.7325C22.2916 21.7325 22.2366 21.7233 22.1725 21.7142L19.505 21.0358C19.1383 20.9442 18.9183 20.5683 19.01 20.2017C19.1016 19.835 19.4775 19.615 19.8441 19.7067L22.5116 20.385C22.8875 20.4767 23.1075 20.8525 23.0158 21.2192ZM25.7016 18.1208C25.6191 18.4325 25.3441 18.6342 25.0325 18.6342C24.9775 18.6342 24.9225 18.625 24.8583 18.6158L20.4125 17.4883C20.0458 17.3967 19.8258 17.0208 19.9175 16.6542C20.0091 16.2875 20.385 16.0675 20.7516 16.1592L25.1975 17.2867C25.5733 17.3692 25.7933 17.745 25.7016 18.1208Z" fill="#22C55E"/>
</svg>
