<svg width="40" height="40" viewBox="0 0 40 40" fill="none" xmlns="http://www.w3.org/2000/svg">
<path d="M0 20C0 12.5231 0 8.78461 1.60769 6C2.66091 4.17577 4.17577 2.66091 6 1.60769C8.78461 0 12.5231 0 20 0C27.4769 0 31.2154 0 34 1.60769C35.8242 2.66091 37.3391 4.17577 38.3923 6C40 8.78461 40 12.5231 40 20C40 27.4769 40 31.2154 38.3923 34C37.3391 35.8242 35.8242 37.3391 34 38.3923C31.2154 40 27.4769 40 20 40C12.5231 40 8.78461 40 6 38.3923C4.17577 37.3391 2.66091 35.8242 1.60769 34C0 31.2154 0 27.4769 0 20Z" fill="#F2F3F7"/>
<path d="M27.3791 18.7442L23.0983 16.9017L22.145 16.4983C21.9983 16.425 21.87 16.2325 21.87 16.0675V13.2625C21.87 12.3825 21.2191 11.3375 20.4308 10.9342C20.1558 10.7967 19.8258 10.7967 19.5508 10.9342C18.7716 11.3375 18.1208 12.3917 18.1208 13.2717V16.0767C18.1208 16.2417 17.9925 16.4342 17.8458 16.5075L12.6208 18.7533C12.0433 18.9917 11.5758 19.7158 11.5758 20.3392V21.5492C11.5758 22.3283 12.1625 22.7133 12.8866 22.4017L17.4791 20.4217C17.8366 20.2658 18.13 20.4583 18.13 20.8525V21.87V23.52C18.13 23.7308 18.0108 24.0333 17.8641 24.18L15.7375 26.3158C15.5175 26.5358 15.4166 26.9667 15.5175 27.2783L15.93 28.525C16.095 29.0658 16.7091 29.3225 17.2133 29.0658L19.395 27.2325C19.725 26.9483 20.2658 26.9483 20.5958 27.2325L22.7775 29.0658C23.2816 29.3133 23.8958 29.0658 24.0791 28.525L24.4916 27.2783C24.5925 26.9758 24.4916 26.5358 24.2716 26.3158L22.145 24.18C21.9891 24.0333 21.87 23.7308 21.87 23.52V20.8525C21.87 20.4583 22.1541 20.275 22.5208 20.4217L27.1133 22.4017C27.8375 22.7133 28.4241 22.3283 28.4241 21.5492V20.3392C28.4241 19.7158 27.9566 18.9917 27.3791 18.7442Z" fill="#8D969F"/>
</svg>
