<svg width="40" height="40" viewBox="0 0 40 40" fill="none" xmlns="http://www.w3.org/2000/svg">
<path d="M0 20C0 12.5231 0 8.78461 1.60769 6C2.66091 4.17577 4.17577 2.66091 6 1.60769C8.78461 0 12.5231 0 20 0C27.4769 0 31.2154 0 34 1.60769C35.8242 2.66091 37.3391 4.17577 38.3923 6C40 8.78461 40 12.5231 40 20C40 27.4769 40 31.2154 38.3923 34C37.3391 35.8242 35.8242 37.3391 34 38.3923C31.2154 40 27.4769 40 20 40C12.5231 40 8.78461 40 6 38.3923C4.17577 37.3391 2.66091 35.8242 1.60769 34C0 31.2154 0 27.4769 0 20Z" fill="#F2F3F7"/>
<path d="M24.3542 12.2633V10.8333C24.3542 10.4575 24.0425 10.1458 23.6667 10.1458C23.2909 10.1458 22.9792 10.4575 22.9792 10.8333V12.2083H17.0209V10.8333C17.0209 10.4575 16.7092 10.1458 16.3334 10.1458C15.9575 10.1458 15.6459 10.4575 15.6459 10.8333V12.2633C13.1709 12.4925 11.97 13.9683 11.7867 16.1591C11.7684 16.425 11.9884 16.645 12.245 16.645H27.755C28.0209 16.645 28.2409 16.4158 28.2134 16.1591C28.03 13.9683 26.8292 12.4925 24.3542 12.2633Z" fill="#8D969F"/>
<path d="M27.3333 18.02H12.6667C12.1625 18.02 11.75 18.4325 11.75 18.9367V24.5834C11.75 27.3334 13.125 29.1667 16.3333 29.1667H23.6667C26.875 29.1667 28.25 27.3334 28.25 24.5834V18.9367C28.25 18.4325 27.8375 18.02 27.3333 18.02ZM17.4425 25.6925C17.3967 25.7292 17.3508 25.775 17.305 25.8025C17.25 25.8392 17.195 25.8667 17.14 25.885C17.085 25.9125 17.03 25.9309 16.975 25.94C16.9108 25.9492 16.8558 25.9584 16.7917 25.9584C16.6725 25.9584 16.5533 25.9309 16.4433 25.885C16.3242 25.8392 16.2325 25.775 16.1408 25.6925C15.9758 25.5184 15.875 25.28 15.875 25.0417C15.875 24.8034 15.9758 24.565 16.1408 24.3909C16.2325 24.3084 16.3242 24.2442 16.4433 24.1984C16.6083 24.125 16.7917 24.1067 16.975 24.1434C17.03 24.1525 17.085 24.1709 17.14 24.1984C17.195 24.2167 17.25 24.2442 17.305 24.2809C17.3508 24.3175 17.3967 24.3542 17.4425 24.3909C17.6075 24.565 17.7083 24.8034 17.7083 25.0417C17.7083 25.28 17.6075 25.5184 17.4425 25.6925ZM17.4425 22.4842C17.2683 22.6492 17.03 22.75 16.7917 22.75C16.5533 22.75 16.315 22.6492 16.1408 22.4842C15.9758 22.31 15.875 22.0717 15.875 21.8334C15.875 21.595 15.9758 21.3567 16.1408 21.1825C16.3975 20.9259 16.8008 20.8434 17.14 20.99C17.2592 21.0359 17.36 21.1 17.4425 21.1825C17.6075 21.3567 17.7083 21.595 17.7083 21.8334C17.7083 22.0717 17.6075 22.31 17.4425 22.4842ZM20.6508 25.6925C20.4767 25.8575 20.2383 25.9584 20 25.9584C19.7617 25.9584 19.5233 25.8575 19.3492 25.6925C19.1842 25.5184 19.0833 25.28 19.0833 25.0417C19.0833 24.8034 19.1842 24.565 19.3492 24.3909C19.6883 24.0517 20.3117 24.0517 20.6508 24.3909C20.8158 24.565 20.9167 24.8034 20.9167 25.0417C20.9167 25.28 20.8158 25.5184 20.6508 25.6925ZM20.6508 22.4842C20.605 22.5209 20.5592 22.5575 20.5133 22.5942C20.4583 22.6309 20.4033 22.6584 20.3483 22.6767C20.2933 22.7042 20.2383 22.7225 20.1833 22.7317C20.1192 22.7409 20.0642 22.75 20 22.75C19.7617 22.75 19.5233 22.6492 19.3492 22.4842C19.1842 22.31 19.0833 22.0717 19.0833 21.8334C19.0833 21.595 19.1842 21.3567 19.3492 21.1825C19.4317 21.1 19.5325 21.0359 19.6517 20.99C19.9908 20.8434 20.3942 20.9259 20.6508 21.1825C20.8158 21.3567 20.9167 21.595 20.9167 21.8334C20.9167 22.0717 20.8158 22.31 20.6508 22.4842ZM23.8592 25.6925C23.685 25.8575 23.4467 25.9584 23.2083 25.9584C22.97 25.9584 22.7317 25.8575 22.5575 25.6925C22.3925 25.5184 22.2917 25.28 22.2917 25.0417C22.2917 24.8034 22.3925 24.565 22.5575 24.3909C22.8967 24.0517 23.52 24.0517 23.8592 24.3909C24.0242 24.565 24.125 24.8034 24.125 25.0417C24.125 25.28 24.0242 25.5184 23.8592 25.6925ZM23.8592 22.4842C23.8133 22.5209 23.7675 22.5575 23.7217 22.5942C23.6667 22.6309 23.6117 22.6584 23.5567 22.6767C23.5017 22.7042 23.4467 22.7225 23.3917 22.7317C23.3275 22.7409 23.2633 22.75 23.2083 22.75C22.97 22.75 22.7317 22.6492 22.5575 22.4842C22.3925 22.31 22.2917 22.0717 22.2917 21.8334C22.2917 21.595 22.3925 21.3567 22.5575 21.1825C22.6492 21.1 22.7408 21.0359 22.86 20.99C23.025 20.9167 23.2083 20.8984 23.3917 20.935C23.4467 20.9442 23.5017 20.9625 23.5567 20.99C23.6117 21.0084 23.6667 21.0359 23.7217 21.0725C23.7675 21.1092 23.8133 21.1459 23.8592 21.1825C24.0242 21.3567 24.125 21.595 24.125 21.8334C24.125 22.0717 24.0242 22.31 23.8592 22.4842Z" fill="#8D969F"/>
</svg>
