<svg width="40" height="40" viewBox="0 0 40 40" fill="none" xmlns="http://www.w3.org/2000/svg">
<path d="M0 20C0 12.5231 0 8.78461 1.60769 6C2.66091 4.17577 4.17577 2.66091 6 1.60769C8.78461 0 12.5231 0 20 0C27.4769 0 31.2154 0 34 1.60769C35.8242 2.66091 37.3391 4.17577 38.3923 6C40 8.78461 40 12.5231 40 20C40 27.4769 40 31.2154 38.3923 34C37.3391 35.8242 35.8242 37.3391 34 38.3923C31.2154 40 27.4769 40 20 40C12.5231 40 8.78461 40 6 38.3923C4.17577 37.3391 2.66091 35.8242 1.60769 34C0 31.2154 0 27.4769 0 20Z" fill="#F2F3F7"/>
<path d="M18.8541 13.2533L14.7933 11.2458C12.6025 10.1733 10.8058 11.2642 10.8058 13.6658V27.2692C10.8058 28.3142 11.6766 29.1667 12.74 29.1667H19.5416C20.0458 29.1667 20.4583 28.7542 20.4583 28.25V15.7925C20.4583 14.83 19.7341 13.6842 18.8541 13.2533ZM17.2225 21.6042H14.0416C13.6658 21.6042 13.3541 21.2925 13.3541 20.9167C13.3541 20.5408 13.6658 20.2292 14.0416 20.2292H17.2225C17.5983 20.2292 17.91 20.5408 17.91 20.9167C17.91 21.2925 17.6075 21.6042 17.2225 21.6042ZM17.2225 17.9375H14.0416C13.6658 17.9375 13.3541 17.6258 13.3541 17.25C13.3541 16.8742 13.6658 16.5625 14.0416 16.5625H17.2225C17.5983 16.5625 17.91 16.8742 17.91 17.25C17.91 17.6258 17.6075 17.9375 17.2225 17.9375Z" fill="#8D969F"/>
<path d="M29.1667 25.5367V26.875C29.1667 28.14 28.14 29.1667 26.875 29.1667H22.7225C22.2275 29.1667 21.8334 28.7725 21.8334 28.2775V26.2975C22.8142 26.4167 23.85 26.1325 24.5925 25.5367C25.2159 26.0408 26.0134 26.3433 26.8842 26.3433C27.7367 26.3433 28.5342 26.0408 29.1667 25.5367Z" fill="#8D969F"/>
<path d="M29.1667 22.7958V22.805C29.0934 24.0058 28.1125 24.9683 26.8842 24.9683C25.61 24.9683 24.5925 23.9325 24.5925 22.6767C24.5925 24.0792 23.3 25.2067 21.8334 24.9225V20C21.8334 19.4133 22.3742 18.9733 22.9517 19.1017L24.5925 19.4683L25.0325 19.5692L26.9025 19.9908C27.3517 20.0825 27.7642 20.2383 28.1217 20.4675C28.1217 20.4767 28.1309 20.4767 28.1309 20.4767C28.2225 20.5408 28.3142 20.6142 28.3967 20.6967C28.8184 21.1183 29.0934 21.7325 29.1575 22.6308C29.1575 22.6858 29.1667 22.7408 29.1667 22.7958Z" fill="#8D969F"/>
</svg>
